<svg xmlns="http://www.w3.org/2000/svg" width="794.40625" height="791.44140625" viewBox="-814.2545776367188 -298.2312316894531 794.40625 791.44140625"><title>Neo4j Graph Visualization</title><desc>Created using Neo4j (http://www.neo4j.com/)</desc><g class="layer relationships"><g class="relationship" transform="translate(-471.2254861590682 130.96919639969605) rotate(526.7761283905661)"><path class="b-outline" fill="#A5ABB6" stroke="none" d="M 25 0.5 L 25.802528830791175 0.5 L 25.802528830791175 -0.5 L 25 -0.5 Z M 67.66190383079118 0.5 L 68.46443266158235 0.5 L 68.46443266158235 3.5 L 75.46443266158235 0 L 68.46443266158235 -3.5 L 68.46443266158235 -0.5 L 67.66190383079118 -0.5 Z"/><text text-anchor="middle" pointer-events="none" font-size="8px" fill="#000000" x="46.732216330791175" y="3" transform="rotate(180 46.732216330791175 0)" font-family="Helvetica Neue, Helvetica, Arial, sans-serif">IS_TAG…</text></g><g class="relationship" transform="translate(-471.2254861590682 130.96919639969605) rotate(378.4818875990255)"><path class="b-outline" fill="#A5ABB6" stroke="none" d="M 25 0.5 L 158.81568163837161 0.5 L 158.81568163837161 -0.5 L 25 -0.5 Z M 234.89771288837161 0.5 L 368.71339452674323 0.5 L 368.71339452674323 3.5 L 375.71339452674323 0 L 368.71339452674323 -3.5 L 368.71339452674323 -0.5 L 234.89771288837161 -0.5 Z"/><text text-anchor="middle" pointer-events="none" font-size="8px" fill="#000000" x="196.85669726337161" y="3" font-family="Helvetica Neue, Helvetica, Arial, sans-serif">IS_TAGGED_WITH</text></g><g class="relationship" transform="translate(-471.2254861590682 130.96919639969605) rotate(217.02030039769704)"><path class="b-outline" fill="#A5ABB6" stroke="none" d="M 25 0.5 L 127.4808043095702 0.5 L 127.4808043095702 -0.5 L 25 -0.5 Z M 190.3870543095702 0.5 L 292.8678586191404 0.5 L 292.8678586191404 3.5 L 299.8678586191404 0 L 292.8678586191404 -3.5 L 292.8678586191404 -0.5 L 190.3870543095702 -0.5 Z"/><text text-anchor="middle" pointer-events="none" font-size="8px" fill="#000000" x="158.9339293095702" y="3" transform="rotate(180 158.9339293095702 0)" font-family="Helvetica Neue, Helvetica, Arial, sans-serif">HAS_VERSION</text></g><g class="relationship" transform="translate(-471.2254861590682 130.96919639969605) rotate(217.44786474193012)"><path class="b-outline" fill="#A5ABB6" stroke="none" d="M 25 0.5 L 56.541306778781504 0.5 L 56.541306778781504 -0.5 L 25 -0.5 Z M 119.4475567787815 0.5 L 150.988863557563 0.5 L 150.988863557563 3.5 L 157.988863557563 0 L 150.988863557563 -3.5 L 150.988863557563 -0.5 L 119.4475567787815 -0.5 Z"/><text text-anchor="middle" pointer-events="none" font-size="8px" fill="#000000" x="87.9944317787815" y="3" transform="rotate(180 87.9944317787815 0)" font-family="Helvetica Neue, Helvetica, Arial, sans-serif">HAS_VERSION</text></g><g class="relationship" transform="translate(-471.2254861590682 130.96919639969605) rotate(498.17117404859073)"><path class="b-outline" fill="#A5ABB6" stroke="none" d="M 25 0.5 L 41.70678803850872 0.5 L 41.70678803850872 -0.5 L 25 -0.5 Z M 104.61303803850872 0.5 L 121.31982607701744 0.5 L 121.31982607701744 3.5 L 128.31982607701744 0 L 121.31982607701744 -3.5 L 121.31982607701744 -0.5 L 104.61303803850872 -0.5 Z"/><text text-anchor="middle" pointer-events="none" font-size="8px" fill="#000000" x="73.15991303850872" y="3" transform="rotate(180 73.15991303850872 0)" font-family="Helvetica Neue, Helvetica, Arial, sans-serif">HAS_VERSION</text></g><g class="relationship" transform="translate(-471.2254861590682 130.96919639969605) rotate(491.495845837278)"><path class="b-outline" fill="#A5ABB6" stroke="none" d="M 25 0.5 L 126.34837685810564 0.5 L 126.34837685810564 -0.5 L 25 -0.5 Z M 189.25462685810564 0.5 L 290.6030037162113 0.5 L 290.6030037162113 3.5 L 297.6030037162113 0 L 290.6030037162113 -3.5 L 290.6030037162113 -0.5 L 189.25462685810564 -0.5 Z"/><text text-anchor="middle" pointer-events="none" font-size="8px" fill="#000000" x="157.80150185810564" y="3" transform="rotate(180 157.80150185810564 0)" font-family="Helvetica Neue, Helvetica, Arial, sans-serif">HAS_VERSION</text></g><g class="relationship" transform="translate(-471.2254861590682 130.96919639969605) rotate(268.11985401339314)"><path class="b-outline" fill="#A5ABB6" stroke="none" d="M 25 0.5 L 43.02589081873637 0.5 L 43.02589081873637 -0.5 L 25 -0.5 Z M 105.93214081873637 0.5 L 123.95803163747274 0.5 L 123.95803163747274 3.5 L 130.95803163747274 0 L 123.95803163747274 -3.5 L 123.95803163747274 -0.5 L 105.93214081873637 -0.5 Z"/><text text-anchor="middle" pointer-events="none" font-size="8px" fill="#000000" x="74.47901581873637" y="3" transform="rotate(180 74.47901581873637 0)" font-family="Helvetica Neue, Helvetica, Arial, sans-serif">HAS_VERSION</text></g><g class="relationship" transform="translate(-471.2254861590682 130.96919639969605) rotate(523.7844704044676)"><path class="b-outline" fill="#A5ABB6" stroke="none" d="M 25 0.5 L 67.41277802258315 0.5 L 67.41277802258315 -0.5 L 25 -0.5 Z M 130.31902802258315 0.5 L 172.7318060451663 0.5 L 172.7318060451663 3.5 L 179.7318060451663 0 L 172.7318060451663 -3.5 L 172.7318060451663 -0.5 L 130.31902802258315 -0.5 Z"/><text text-anchor="middle" pointer-events="none" font-size="8px" fill="#000000" x="98.86590302258315" y="3" transform="rotate(180 98.86590302258315 0)" font-family="Helvetica Neue, Helvetica, Arial, sans-serif">HAS_VERSION</text></g><g class="relationship" transform="translate(-471.2254861590682 130.96919639969605) rotate(352.86094356392164)"><path class="b-outline" fill="#A5ABB6" stroke="none" d="M 25 0.5 L 124.4014013502476 0.5 L 124.4014013502476 -0.5 L 25 -0.5 Z M 187.3076513502476 0.5 L 286.7090527004952 0.5 L 286.7090527004952 3.5 L 293.7090527004952 0 L 286.7090527004952 -3.5 L 286.7090527004952 -0.5 L 187.3076513502476 -0.5 Z"/><text text-anchor="middle" pointer-events="none" font-size="8px" fill="#000000" x="155.8545263502476" y="3" font-family="Helvetica Neue, Helvetica, Arial, sans-serif">HAS_VERSION</text></g><g class="relationship" transform="translate(-471.2254861590682 130.96919639969605) rotate(292.23954201773677)"><path class="b-outline" fill="#A5ABB6" stroke="none" d="M 25 0.5 L 62.920539083273354 0.5 L 62.920539083273354 -0.5 L 25 -0.5 Z M 125.82678908327335 0.5 L 163.7473281665467 0.5 L 163.7473281665467 3.5 L 170.7473281665467 0 L 163.7473281665467 -3.5 L 163.7473281665467 -0.5 L 125.82678908327335 -0.5 Z"/><text text-anchor="middle" pointer-events="none" font-size="8px" fill="#000000" x="94.37366408327335" y="3" font-family="Helvetica Neue, Helvetica, Arial, sans-serif">HAS_VERSION</text></g><g class="relationship" transform="translate(-471.2254861590682 130.96919639969605) rotate(185.90285070164276)"><path class="b-outline" fill="#A5ABB6" stroke="none" d="M 25 0.5 L 90.6285085524425 0.5 L 90.6285085524425 -0.5 L 25 -0.5 Z M 153.5347585524425 0.5 L 219.163267104885 0.5 L 219.163267104885 3.5 L 226.163267104885 0 L 219.163267104885 -3.5 L 219.163267104885 -0.5 L 153.5347585524425 -0.5 Z"/><text text-anchor="middle" pointer-events="none" font-size="8px" fill="#000000" x="122.0816335524425" y="3" transform="rotate(180 122.0816335524425 0)" font-family="Helvetica Neue, Helvetica, Arial, sans-serif">HAS_VERSION</text></g><g class="relationship" transform="translate(-471.2254861590682 130.96919639969605) rotate(349.69866337945155)"><path class="b-outline" fill="#A5ABB6" stroke="none" d="M 25 0.5 L 27.219780646428752 0.5 L 27.219780646428752 -0.5 L 25 -0.5 Z M 62.11821814642875 0.5 L 64.3379987928575 0.5 L 64.3379987928575 3.5 L 71.3379987928575 0 L 64.3379987928575 -3.5 L 64.3379987928575 -0.5 L 62.11821814642875 -0.5 Z"/><text text-anchor="middle" pointer-events="none" font-size="8px" fill="#000000" x="44.66899939642875" y="3" font-family="Helvetica Neue, Helvetica, Arial, sans-serif">HAS_…</text></g><g class="relationship" transform="translate(-471.2254861590682 130.96919639969605) rotate(474.49692719650955)"><path class="b-outline" fill="#A5ABB6" stroke="none" d="M 25 0.5 L 128.91836536167503 0.5 L 128.91836536167503 -0.5 L 25 -0.5 Z M 191.82461536167503 0.5 L 295.74298072335006 0.5 L 295.74298072335006 3.5 L 302.74298072335006 0 L 295.74298072335006 -3.5 L 295.74298072335006 -0.5 L 191.82461536167503 -0.5 Z"/><text text-anchor="middle" pointer-events="none" font-size="8px" fill="#000000" x="160.37149036167503" y="3" transform="rotate(180 160.37149036167503 0)" font-family="Helvetica Neue, Helvetica, Arial, sans-serif">HAS_VERSION</text></g><g class="relationship" transform="translate(-471.2254861590682 130.96919639969605) rotate(482.57277621249415)"><path class="b-outline" fill="#A5ABB6" stroke="none" d="M 24.018736134675446,-6.953439040707552 L 24.277555179777966,-5.987513214418485 A 362.49051067683234 362.49051067683234 0 0 1 84.05292051823963,-16.736875065555807 L 83.95900334940099,-17.732455080118882 A 363.49051067683234 363.49051067683234 0 0 0 24.018736134675446,-6.953439040707552 Z M 146.8713802134991,-18.198379597928692 L 146.79221892494706,-17.201517776814683 A 362.49051067683234 362.49051067683234 0 0 1 206.72023679478716,-7.3386705334787585 L 205.98678393597356,-4.429710770281924 L 213.63005171871535,-6.112107156779866 L 207.69817393987194,-11.217283551074537 L 206.96472108105834,-8.308323787877702 A 363.49051067683234 363.49051067683234 0 0 0 146.8713802134991,-18.198379597928692"/><text text-anchor="middle" pointer-events="none" font-size="8px" fill="#000000" x="115.4087952349559" y="-15.829123643984587" transform="rotate(180 115.4087952349559 -18.829123643984587)" font-family="Helvetica Neue, Helvetica, Arial, sans-serif">HAS_VERSION</text></g><g class="relationship" transform="translate(-471.2254861590682 130.96919639969605) rotate(402.9978660668262)"><path class="b-outline" fill="#A5ABB6" stroke="none" d="M 25 0.5 L 111.75238037364497 0.5 L 111.75238037364497 -0.5 L 25 -0.5 Z M 174.65863037364497 0.5 L 261.41101074728994 0.5 L 261.41101074728994 3.5 L 268.41101074728994 0 L 261.41101074728994 -3.5 L 261.41101074728994 -0.5 L 174.65863037364497 -0.5 Z"/><text text-anchor="middle" pointer-events="none" font-size="8px" fill="#000000" x="143.20550537364497" y="3" font-family="Helvetica Neue, Helvetica, Arial, sans-serif">HAS_VERSION</text></g><g class="relationship" transform="translate(-471.2254861590682 130.96919639969605) rotate(197.39811753966313)"><path class="b-outline" fill="#A5ABB6" stroke="none" d="M 25 0.5 L 129.58920890068356 0.5 L 129.58920890068356 -0.5 L 25 -0.5 Z M 192.49545890068356 0.5 L 297.0846678013671 0.5 L 297.0846678013671 3.5 L 304.0846678013671 0 L 297.0846678013671 -3.5 L 297.0846678013671 -0.5 L 192.49545890068356 -0.5 Z"/><text text-anchor="middle" pointer-events="none" font-size="8px" fill="#000000" x="161.04233390068356" y="3" transform="rotate(180 161.04233390068356 0)" font-family="Helvetica Neue, Helvetica, Arial, sans-serif">HAS_VERSION</text></g><g class="relationship" transform="translate(-471.2254861590682 130.96919639969605) rotate(417.8430437161436)"><path class="b-outline" fill="#A5ABB6" stroke="none" d="M 25 0.5 L 133.5457878305655 0.5 L 133.5457878305655 -0.5 L 25 -0.5 Z M 196.4520378305655 0.5 L 304.997825661131 0.5 L 304.997825661131 3.5 L 311.997825661131 0 L 304.997825661131 -3.5 L 304.997825661131 -0.5 L 196.4520378305655 -0.5 Z"/><text text-anchor="middle" pointer-events="none" font-size="8px" fill="#000000" x="164.9989128305655" y="3" font-family="Helvetica Neue, Helvetica, Arial, sans-serif">HAS_VERSION</text></g><g class="relationship" transform="translate(-471.2254861590682 130.96919639969605) rotate(516.454009381277)"><path class="b-outline" fill="#A5ABB6" stroke="none" d="M 25 0.5 L 118.5179438476244 0.5 L 118.5179438476244 -0.5 L 25 -0.5 Z M 181.4241938476244 0.5 L 274.9421376952488 0.5 L 274.9421376952488 3.5 L 281.9421376952488 0 L 274.9421376952488 -3.5 L 274.9421376952488 -0.5 L 181.4241938476244 -0.5 Z"/><text text-anchor="middle" pointer-events="none" font-size="8px" fill="#000000" x="149.9710688476244" y="3" transform="rotate(180 149.9710688476244 0)" font-family="Helvetica Neue, Helvetica, Arial, sans-serif">HAS_VERSION</text></g><g class="relationship" transform="translate(-471.2254861590682 130.96919639969605) rotate(464.55832986510984)"><path class="b-outline" fill="#A5ABB6" stroke="none" d="M 25 0.5 L 53.498889527744225 0.5 L 53.498889527744225 -0.5 L 25 -0.5 Z M 116.40513952774423 0.5 L 144.90402905548845 0.5 L 144.90402905548845 3.5 L 151.90402905548845 0 L 144.90402905548845 -3.5 L 144.90402905548845 -0.5 L 116.40513952774423 -0.5 Z"/><text text-anchor="middle" pointer-events="none" font-size="8px" fill="#000000" x="84.95201452774423" y="3" transform="rotate(180 84.95201452774423 0)" font-family="Helvetica Neue, Helvetica, Arial, sans-serif">HAS_VERSION</text></g><g class="relationship" transform="translate(-471.2254861590682 130.96919639969605) rotate(449.93547731386695)"><path class="b-outline" fill="#A5ABB6" stroke="none" d="M 25 0.5 L 131.66747915758043 0.5 L 131.66747915758043 -0.5 L 25 -0.5 Z M 194.57372915758043 0.5 L 301.24120831516086 0.5 L 301.24120831516086 3.5 L 308.24120831516086 0 L 301.24120831516086 -3.5 L 301.24120831516086 -0.5 L 194.57372915758043 -0.5 Z"/><text text-anchor="middle" pointer-events="none" font-size="8px" fill="#000000" x="163.12060415758043" y="3" font-family="Helvetica Neue, Helvetica, Arial, sans-serif">HAS_VERSION</text></g><g class="relationship" transform="translate(-471.2254861590682 130.96919639969605) rotate(420.1509768593831)"><path class="b-outline" fill="#A5ABB6" stroke="none" d="M 25 0.5 L 88.41267939992521 0.5 L 88.41267939992521 -0.5 L 25 -0.5 Z M 151.3189293999252 0.5 L 214.73160879985042 0.5 L 214.73160879985042 3.5 L 221.73160879985042 0 L 214.73160879985042 -3.5 L 214.73160879985042 -0.5 L 151.3189293999252 -0.5 Z"/><text text-anchor="middle" pointer-events="none" font-size="8px" fill="#000000" x="119.86580439992521" y="3" font-family="Helvetica Neue, Helvetica, Arial, sans-serif">HAS_VERSION</text></g><g class="relationship" transform="translate(-471.2254861590682 130.96919639969605) rotate(355.3288353445166)"><path class="b-outline" fill="#A5ABB6" stroke="none" d="M 25 0.5 L 79.7493464725253 0.5 L 79.7493464725253 -0.5 L 25 -0.5 Z M 142.6555964725253 0.5 L 197.4049429450506 0.5 L 197.4049429450506 3.5 L 204.4049429450506 0 L 197.4049429450506 -3.5 L 197.4049429450506 -0.5 L 142.6555964725253 -0.5 Z"/><text text-anchor="middle" pointer-events="none" font-size="8px" fill="#000000" x="111.2024714725253" y="3" font-family="Helvetica Neue, Helvetica, Arial, sans-serif">HAS_VERSION</text></g><g class="relationship" transform="translate(-471.2254861590682 130.96919639969605) rotate(367.85380386983167)"><path class="b-outline" fill="#A5ABB6" stroke="none" d="M 25 0.5 L 92.22826281205208 0.5 L 92.22826281205208 -0.5 L 25 -0.5 Z M 155.1345128120521 0.5 L 222.36277562410416 0.5 L 222.36277562410416 3.5 L 229.36277562410416 0 L 222.36277562410416 -3.5 L 222.36277562410416 -0.5 L 155.1345128120521 -0.5 Z"/><text text-anchor="middle" pointer-events="none" font-size="8px" fill="#000000" x="123.68138781205208" y="3" font-family="Helvetica Neue, Helvetica, Arial, sans-serif">HAS_VERSION</text></g><g class="relationship" transform="translate(-471.2254861590682 130.96919639969605) rotate(406.3170759425113)"><path class="b-outline" fill="#A5ABB6" stroke="none" d="M 25 0.5 L 156.57367290236652 0.5 L 156.57367290236652 -0.5 L 25 -0.5 Z M 219.47992290236652 0.5 L 351.05359580473305 0.5 L 351.05359580473305 3.5 L 358.05359580473305 0 L 351.05359580473305 -3.5 L 351.05359580473305 -0.5 L 219.47992290236652 -0.5 Z"/><text text-anchor="middle" pointer-events="none" font-size="8px" fill="#000000" x="188.02679790236652" y="3" font-family="Helvetica Neue, Helvetica, Arial, sans-serif">HAS_VERSION</text></g><g class="relationship" transform="translate(-471.2254861590682 130.96919639969605) rotate(297.69192188900024)"><path class="b-outline" fill="#A5ABB6" stroke="none" d="M 25 0.5 L 137.31524741402234 0.5 L 137.31524741402234 -0.5 L 25 -0.5 Z M 200.22149741402234 0.5 L 312.5367448280447 0.5 L 312.5367448280447 3.5 L 319.5367448280447 0 L 312.5367448280447 -3.5 L 312.5367448280447 -0.5 L 200.22149741402234 -0.5 Z"/><text text-anchor="middle" pointer-events="none" font-size="8px" fill="#000000" x="168.76837241402234" y="3" font-family="Helvetica Neue, Helvetica, Arial, sans-serif">HAS_VERSION</text></g><g class="relationship" transform="translate(-471.2254861590682 130.96919639969605) rotate(389.7430960565372)"><path class="b-outline" fill="#A5ABB6" stroke="none" d="M 25 0.5 L 90.63747678255527 0.5 L 90.63747678255527 -0.5 L 25 -0.5 Z M 153.54372678255527 0.5 L 219.18120356511054 0.5 L 219.18120356511054 3.5 L 226.18120356511054 0 L 219.18120356511054 -3.5 L 219.18120356511054 -0.5 L 153.54372678255527 -0.5 Z"/><text text-anchor="middle" pointer-events="none" font-size="8px" fill="#000000" x="122.09060178255527" y="3" font-family="Helvetica Neue, Helvetica, Arial, sans-serif">HAS_VERSION</text></g><g class="relationship" transform="translate(-471.2254861590682 130.96919639969605) rotate(392.57276160926284)"><path class="b-outline" fill="#A5ABB6" stroke="none" d="M 25 0.5 L 166.040844790778 0.5 L 166.040844790778 -0.5 L 25 -0.5 Z M 228.947094790778 0.5 L 369.987939581556 0.5 L 369.987939581556 3.5 L 376.987939581556 0 L 369.987939581556 -3.5 L 369.987939581556 -0.5 L 228.947094790778 -0.5 Z"/><text text-anchor="middle" pointer-events="none" font-size="8px" fill="#000000" x="197.493969790778" y="3" font-family="Helvetica Neue, Helvetica, Arial, sans-serif">HAS_VERSION</text></g><g class="relationship" transform="translate(-471.2254861590682 130.96919639969605) rotate(306.33351305373145)"><path class="b-outline" fill="#A5ABB6" stroke="none" d="M 25 0.5 L 36.46177458456532 0.5 L 36.46177458456532 -0.5 L 25 -0.5 Z M 99.36802458456532 0.5 L 110.82979916913064 0.5 L 110.82979916913064 3.5 L 117.82979916913064 0 L 110.82979916913064 -3.5 L 110.82979916913064 -0.5 L 99.36802458456532 -0.5 Z"/><text text-anchor="middle" pointer-events="none" font-size="8px" fill="#000000" x="67.91489958456532" y="3" font-family="Helvetica Neue, Helvetica, Arial, sans-serif">HAS_VERSION</text></g><g class="relationship" transform="translate(-471.2254861590682 130.96919639969605) rotate(361.70965578140897)"><path class="b-outline" fill="#A5ABB6" stroke="none" d="M 25 0.5 L 176.32949821238168 0.5 L 176.32949821238168 -0.5 L 25 -0.5 Z M 239.23574821238168 0.5 L 390.56524642476336 0.5 L 390.56524642476336 3.5 L 397.56524642476336 0 L 390.56524642476336 -3.5 L 390.56524642476336 -0.5 L 239.23574821238168 -0.5 Z"/><text text-anchor="middle" pointer-events="none" font-size="8px" fill="#000000" x="207.78262321238168" y="3" font-family="Helvetica Neue, Helvetica, Arial, sans-serif">HAS_VERSION</text></g><g class="relationship" transform="translate(-471.2254861590682 130.96919639969605) rotate(403.9454191822438)"><path class="b-outline" fill="#A5ABB6" stroke="none" d="M 25 0.5 L 63.89038949997584 0.5 L 63.89038949997584 -0.5 L 25 -0.5 Z M 126.79663949997584 0.5 L 165.68702899995168 0.5 L 165.68702899995168 3.5 L 172.68702899995168 0 L 165.68702899995168 -3.5 L 165.68702899995168 -0.5 L 126.79663949997584 -0.5 Z"/><text text-anchor="middle" pointer-events="none" font-size="8px" fill="#000000" x="95.34351449997584" y="3" font-family="Helvetica Neue, Helvetica, Arial, sans-serif">HAS_VERSION</text></g><g class="relationship" transform="translate(-471.2254861590682 130.96919639969605) rotate(316.9548574539889)"><path class="b-outline" fill="#A5ABB6" stroke="none" d="M 25 0.5 L 67.91454987305245 0.5 L 67.91454987305245 -0.5 L 25 -0.5 Z M 130.82079987305247 0.5 L 173.7353497461049 0.5 L 173.7353497461049 3.5 L 180.7353497461049 0 L 173.7353497461049 -3.5 L 173.7353497461049 -0.5 L 130.82079987305247 -0.5 Z"/><text text-anchor="middle" pointer-events="none" font-size="8px" fill="#000000" x="99.36767487305245" y="3" font-family="Helvetica Neue, Helvetica, Arial, sans-serif">HAS_VERSION</text></g><g class="relationship" transform="translate(-471.2254861590682 130.96919639969605) rotate(385.1111678441869)"><path class="b-outline" fill="#A5ABB6" stroke="none" d="M 25 0.5 L 124.54226314321713 0.5 L 124.54226314321713 -0.5 L 25 -0.5 Z M 187.44851314321713 0.5 L 286.99077628643425 0.5 L 286.99077628643425 3.5 L 293.99077628643425 0 L 286.99077628643425 -3.5 L 286.99077628643425 -0.5 L 187.44851314321713 -0.5 Z"/><text text-anchor="middle" pointer-events="none" font-size="8px" fill="#000000" x="155.99538814321713" y="3" font-family="Helvetica Neue, Helvetica, Arial, sans-serif">HAS_VERSION</text></g><g class="relationship" transform="translate(-471.2254861590682 130.96919639969605) rotate(341.646824598183)"><path class="b-outline" fill="#A5ABB6" stroke="none" d="M 25 0.5 L 52.40073605522515 0.5 L 52.40073605522515 -0.5 L 25 -0.5 Z M 115.30698605522515 0.5 L 142.7077221104503 0.5 L 142.7077221104503 3.5 L 149.7077221104503 0 L 142.7077221104503 -3.5 L 142.7077221104503 -0.5 L 115.30698605522515 -0.5 Z"/><text text-anchor="middle" pointer-events="none" font-size="8px" fill="#000000" x="83.85386105522515" y="3" font-family="Helvetica Neue, Helvetica, Arial, sans-serif">HAS_VERSION</text></g><g class="relationship" transform="translate(-471.2254861590682 130.96919639969605) rotate(323.26129378575934)"><path class="b-outline" fill="#A5ABB6" stroke="none" d="M 25 0.5 L 113.91089918905217 0.5 L 113.91089918905217 -0.5 L 25 -0.5 Z M 176.81714918905217 0.5 L 265.72804837810435 0.5 L 265.72804837810435 3.5 L 272.72804837810435 0 L 265.72804837810435 -3.5 L 265.72804837810435 -0.5 L 176.81714918905217 -0.5 Z"/><text text-anchor="middle" pointer-events="none" font-size="8px" fill="#000000" x="145.36402418905217" y="3" font-family="Helvetica Neue, Helvetica, Arial, sans-serif">HAS_VERSION</text></g><g class="relationship" transform="translate(-471.2254861590682 130.96919639969605) rotate(368.5102338018612)"><path class="b-outline" fill="#A5ABB6" stroke="none" d="M 25 0.5 L 135.48248852735153 0.5 L 135.48248852735153 -0.5 L 25 -0.5 Z M 198.38873852735153 0.5 L 308.87122705470307 0.5 L 308.87122705470307 3.5 L 315.87122705470307 0 L 308.87122705470307 -3.5 L 308.87122705470307 -0.5 L 198.38873852735153 -0.5 Z"/><text text-anchor="middle" pointer-events="none" font-size="8px" fill="#000000" x="166.93561352735153" y="3" font-family="Helvetica Neue, Helvetica, Arial, sans-serif">HAS_VERSION</text></g><g class="relationship" transform="translate(-471.2254861590682 130.96919639969605) rotate(281.64765778397634)"><path class="b-outline" fill="#A5ABB6" stroke="none" d="M 25 0.5 L 135.80313178010707 0.5 L 135.80313178010707 -0.5 L 25 -0.5 Z M 198.70938178010707 0.5 L 309.51251356021413 0.5 L 309.51251356021413 3.5 L 316.51251356021413 0 L 309.51251356021413 -3.5 L 309.51251356021413 -0.5 L 198.70938178010707 -0.5 Z"/><text text-anchor="middle" pointer-events="none" font-size="8px" fill="#000000" x="167.25625678010707" y="3" font-family="Helvetica Neue, Helvetica, Arial, sans-serif">HAS_VERSION</text></g><g class="relationship" transform="translate(-471.2254861590682 130.96919639969605) rotate(349.49326937240596)"><path class="b-outline" fill="#A5ABB6" stroke="none" d="M 25 0.5 L 166.7169867799191 0.5 L 166.7169867799191 -0.5 L 25 -0.5 Z M 229.6232367799191 0.5 L 371.3402235598382 0.5 L 371.3402235598382 3.5 L 378.3402235598382 0 L 371.3402235598382 -3.5 L 371.3402235598382 -0.5 L 229.6232367799191 -0.5 Z"/><text text-anchor="middle" pointer-events="none" font-size="8px" fill="#000000" x="198.1701117799191" y="3" font-family="Helvetica Neue, Helvetica, Arial, sans-serif">HAS_VERSION</text></g><g class="relationship" transform="translate(-471.2254861590682 130.96919639969605) rotate(337.650493528242)"><path class="b-outline" fill="#A5ABB6" stroke="none" d="M 25 0.5 L 138.4563222138237 0.5 L 138.4563222138237 -0.5 L 25 -0.5 Z M 201.3625722138237 0.5 L 314.8188944276474 0.5 L 314.8188944276474 3.5 L 321.8188944276474 0 L 314.8188944276474 -3.5 L 314.8188944276474 -0.5 L 201.3625722138237 -0.5 Z"/><text text-anchor="middle" pointer-events="none" font-size="8px" fill="#000000" x="169.9094472138237" y="3" font-family="Helvetica Neue, Helvetica, Arial, sans-serif">HAS_VERSION</text></g><g class="relationship" transform="translate(-471.2254861590682 130.96919639969605) rotate(314.6198533043862)"><path class="b-outline" fill="#A5ABB6" stroke="none" d="M 25 0.5 L 191.75464198168387 0.5 L 191.75464198168387 -0.5 L 25 -0.5 Z M 254.66089198168387 0.5 L 421.41553396336775 0.5 L 421.41553396336775 3.5 L 428.41553396336775 0 L 421.41553396336775 -3.5 L 421.41553396336775 -0.5 L 254.66089198168387 -0.5 Z"/><text text-anchor="middle" pointer-events="none" font-size="8px" fill="#000000" x="223.20776698168387" y="3" font-family="Helvetica Neue, Helvetica, Arial, sans-serif">HAS_VERSION</text></g><g class="relationship" transform="translate(-471.2254861590682 130.96919639969605) rotate(374.1586934372214)"><path class="b-outline" fill="#A5ABB6" stroke="none" d="M 25 0.5 L 49.720331708622155 0.5 L 49.720331708622155 -0.5 L 25 -0.5 Z M 112.62658170862215 0.5 L 137.3469134172443 0.5 L 137.3469134172443 3.5 L 144.3469134172443 0 L 137.3469134172443 -3.5 L 137.3469134172443 -0.5 L 112.62658170862215 -0.5 Z"/><text text-anchor="middle" pointer-events="none" font-size="8px" fill="#000000" x="81.17345670862215" y="3" font-family="Helvetica Neue, Helvetica, Arial, sans-serif">HAS_VERSION</text></g><g class="relationship" transform="translate(-471.2254861590682 130.96919639969605) rotate(336.7086019719486)"><path class="b-outline" fill="#A5ABB6" stroke="none" d="M 25 0.5 L 183.7450934648616 0.5 L 183.7450934648616 -0.5 L 25 -0.5 Z M 246.6513434648616 0.5 L 405.3964369297232 0.5 L 405.3964369297232 3.5 L 412.3964369297232 0 L 405.3964369297232 -3.5 L 405.3964369297232 -0.5 L 246.6513434648616 -0.5 Z"/><text text-anchor="middle" pointer-events="none" font-size="8px" fill="#000000" x="215.1982184648616" y="3" font-family="Helvetica Neue, Helvetica, Arial, sans-serif">HAS_VERSION</text></g><g class="relationship" transform="translate(-471.2254861590682 130.96919639969605) rotate(325.2027302490568)"><path class="b-outline" fill="#A5ABB6" stroke="none" d="M 25 0.5 L 161.38413814800788 0.5 L 161.38413814800788 -0.5 L 25 -0.5 Z M 224.29038814800788 0.5 L 360.67452629601576 0.5 L 360.67452629601576 3.5 L 367.67452629601576 0 L 360.67452629601576 -3.5 L 360.67452629601576 -0.5 L 224.29038814800788 -0.5 Z"/><text text-anchor="middle" pointer-events="none" font-size="8px" fill="#000000" x="192.83726314800788" y="3" font-family="Helvetica Neue, Helvetica, Arial, sans-serif">HAS_VERSION</text></g><g class="relationship" transform="translate(-471.2254861590682 130.96919639969605) rotate(302.0250880154383)"><path class="b-outline" fill="#A5ABB6" stroke="none" d="M 25 0.5 L 178.14431437313866 0.5 L 178.14431437313866 -0.5 L 25 -0.5 Z M 241.05056437313866 0.5 L 394.1948787462773 0.5 L 394.1948787462773 3.5 L 401.1948787462773 0 L 394.1948787462773 -3.5 L 394.1948787462773 -0.5 L 241.05056437313866 -0.5 Z"/><text text-anchor="middle" pointer-events="none" font-size="8px" fill="#000000" x="209.59743937313866" y="3" font-family="Helvetica Neue, Helvetica, Arial, sans-serif">HAS_VERSION</text></g><g class="relationship" transform="translate(-471.2254861590682 130.96919639969605) rotate(312.06466816214424)"><path class="b-outline" fill="#A5ABB6" stroke="none" d="M 25 0.5 L 146.2113933305818 0.5 L 146.2113933305818 -0.5 L 25 -0.5 Z M 209.1176433305818 0.5 L 330.3290366611636 0.5 L 330.3290366611636 3.5 L 337.3290366611636 0 L 330.3290366611636 -3.5 L 330.3290366611636 -0.5 L 209.1176433305818 -0.5 Z"/><text text-anchor="middle" pointer-events="none" font-size="8px" fill="#000000" x="177.6645183305818" y="3" font-family="Helvetica Neue, Helvetica, Arial, sans-serif">HAS_VERSION</text></g><g class="relationship" transform="translate(-471.2254861590682 130.96919639969605) rotate(289.66904359018247)"><path class="b-outline" fill="#A5ABB6" stroke="none" d="M 25 0.5 L 97.75106065323476 0.5 L 97.75106065323476 -0.5 L 25 -0.5 Z M 160.65731065323476 0.5 L 233.40837130646952 0.5 L 233.40837130646952 3.5 L 240.40837130646952 0 L 233.40837130646952 -3.5 L 233.40837130646952 -0.5 L 160.65731065323476 -0.5 Z"/><text text-anchor="middle" pointer-events="none" font-size="8px" fill="#000000" x="129.20418565323476" y="3" font-family="Helvetica Neue, Helvetica, Arial, sans-serif">HAS_VERSION</text></g><g class="relationship" transform="translate(-471.2254861590682 130.96919639969605) rotate(265.8974090006566)"><path class="b-outline" fill="#A5ABB6" stroke="none" d="M 25 0.5 L 124.11071278268702 0.5 L 124.11071278268702 -0.5 L 25 -0.5 Z M 187.01696278268702 0.5 L 286.12767556537403 0.5 L 286.12767556537403 3.5 L 293.12767556537403 0 L 286.12767556537403 -3.5 L 286.12767556537403 -0.5 L 187.01696278268702 -0.5 Z"/><text text-anchor="middle" pointer-events="none" font-size="8px" fill="#000000" x="155.56383778268702" y="3" transform="rotate(180 155.56383778268702 0)" font-family="Helvetica Neue, Helvetica, Arial, sans-serif">HAS_VERSION</text></g><g class="relationship" transform="translate(-471.2254861590682 130.96919639969605) rotate(253.5859778986436)"><path class="b-outline" fill="#A5ABB6" stroke="none" d="M 25 0.5 L 85.20347675457377 0.5 L 85.20347675457377 -0.5 L 25 -0.5 Z M 148.10972675457379 0.5 L 208.31320350914754 0.5 L 208.31320350914754 3.5 L 215.31320350914754 0 L 208.31320350914754 -3.5 L 208.31320350914754 -0.5 L 148.10972675457379 -0.5 Z"/><text text-anchor="middle" pointer-events="none" font-size="8px" fill="#000000" x="116.65660175457377" y="3" transform="rotate(180 116.65660175457377 0)" font-family="Helvetica Neue, Helvetica, Arial, sans-serif">HAS_VERSION</text></g><g class="relationship" transform="translate(-471.2254861590682 130.96919639969605) rotate(340.30179960835017)"><path class="b-outline" fill="#A5ABB6" stroke="none" d="M 25 0.5 L 93.88616573383834 0.5 L 93.88616573383834 -0.5 L 25 -0.5 Z M 156.79241573383834 0.5 L 225.67858146767668 0.5 L 225.67858146767668 3.5 L 232.67858146767668 0 L 225.67858146767668 -3.5 L 225.67858146767668 -0.5 L 156.79241573383834 -0.5 Z"/><text text-anchor="middle" pointer-events="none" font-size="8px" fill="#000000" x="125.33929073383834" y="3" font-family="Helvetica Neue, Helvetica, Arial, sans-serif">HAS_VERSION</text></g><g class="relationship" transform="translate(-471.2254861590682 130.96919639969605) rotate(238.61067638046853)"><path class="b-outline" fill="#A5ABB6" stroke="none" d="M 25 0.5 L 51.79065930175513 0.5 L 51.79065930175513 -0.5 L 25 -0.5 Z M 114.69690930175513 0.5 L 141.48756860351025 0.5 L 141.48756860351025 3.5 L 148.48756860351025 0 L 141.48756860351025 -3.5 L 141.48756860351025 -0.5 L 114.69690930175513 -0.5 Z"/><text text-anchor="middle" pointer-events="none" font-size="8px" fill="#000000" x="83.24378430175513" y="3" transform="rotate(180 83.24378430175513 0)" font-family="Helvetica Neue, Helvetica, Arial, sans-serif">HAS_VERSION</text></g><g class="relationship" transform="translate(-471.2254861590682 130.96919639969605) rotate(433.1445397051485)"><path class="b-outline" fill="#A5ABB6" stroke="none" d="M 25 0.5 L 122.74512058506883 0.5 L 122.74512058506883 -0.5 L 25 -0.5 Z M 185.65137058506883 0.5 L 283.39649117013766 0.5 L 283.39649117013766 3.5 L 290.39649117013766 0 L 283.39649117013766 -3.5 L 283.39649117013766 -0.5 L 185.65137058506883 -0.5 Z"/><text text-anchor="middle" pointer-events="none" font-size="8px" fill="#000000" x="154.19824558506883" y="3" font-family="Helvetica Neue, Helvetica, Arial, sans-serif">HAS_VERSION</text></g><g class="relationship" transform="translate(-471.2254861590682 130.96919639969605) rotate(395.99944098997497)"><path class="b-outline" fill="#A5ABB6" stroke="none" d="M 25 0.5 L 25.184818391376588 0.5 L 25.184818391376588 -0.5 L 25 -0.5 Z M 60.08325589137659 0.5 L 60.268074282753176 0.5 L 60.268074282753176 3.5 L 67.26807428275318 0 L 60.268074282753176 -3.5 L 60.268074282753176 -0.5 L 60.08325589137659 -0.5 Z"/><text text-anchor="middle" pointer-events="none" font-size="8px" fill="#000000" x="42.63403714137659" y="3" font-family="Helvetica Neue, Helvetica, Arial, sans-serif">HAS_…</text></g><g class="relationship" transform="translate(-471.2254861590682 130.96919639969605) rotate(502.08937252782505)"><path class="b-outline" fill="#A5ABB6" stroke="none" d="M 25 0.5 L 85.97563932624993 0.5 L 85.97563932624993 -0.5 L 25 -0.5 Z M 148.88188932624993 0.5 L 209.85752865249987 0.5 L 209.85752865249987 3.5 L 216.85752865249987 0 L 209.85752865249987 -3.5 L 209.85752865249987 -0.5 L 148.88188932624993 -0.5 Z"/><text text-anchor="middle" pointer-events="none" font-size="8px" fill="#000000" x="117.42876432624993" y="3" transform="rotate(180 117.42876432624993 0)" font-family="Helvetica Neue, Helvetica, Arial, sans-serif">HAS_VERSION</text></g><g class="relationship" transform="translate(-471.2254861590682 130.96919639969605) rotate(243.48501764330638)"><path class="b-outline" fill="#A5ABB6" stroke="none" d="M 25 0.5 L 169.86352379043012 0.5 L 169.86352379043012 -0.5 L 25 -0.5 Z M 232.76977379043012 0.5 L 377.63329758086024 0.5 L 377.63329758086024 3.5 L 384.63329758086024 0 L 377.63329758086024 -3.5 L 377.63329758086024 -0.5 L 232.76977379043012 -0.5 Z"/><text text-anchor="middle" pointer-events="none" font-size="8px" fill="#000000" x="201.31664879043012" y="3" transform="rotate(180 201.31664879043012 0)" font-family="Helvetica Neue, Helvetica, Arial, sans-serif">HAS_VERSION</text></g><g class="relationship" transform="translate(-471.2254861590682 130.96919639969605) rotate(274.405440765924)"><path class="b-outline" fill="#A5ABB6" stroke="none" d="M 25 0.5 L 82.79985146950385 0.5 L 82.79985146950385 -0.5 L 25 -0.5 Z M 145.70610146950384 0.5 L 203.5059529390077 0.5 L 203.5059529390077 3.5 L 210.5059529390077 0 L 203.5059529390077 -3.5 L 203.5059529390077 -0.5 L 145.70610146950384 -0.5 Z"/><text text-anchor="middle" pointer-events="none" font-size="8px" fill="#000000" x="114.25297646950385" y="3" font-family="Helvetica Neue, Helvetica, Arial, sans-serif">HAS_VERSION</text></g><g class="relationship" transform="translate(-471.2254861590682 130.96919639969605) rotate(307.38335458792466)"><path class="b-outline" fill="#A5ABB6" stroke="none" d="M 25 0.5 L 103.35753531900369 0.5 L 103.35753531900369 -0.5 L 25 -0.5 Z M 166.2637853190037 0.5 L 244.62132063800738 0.5 L 244.62132063800738 3.5 L 251.62132063800738 0 L 244.62132063800738 -3.5 L 244.62132063800738 -0.5 L 166.2637853190037 -0.5 Z"/><text text-anchor="middle" pointer-events="none" font-size="8px" fill="#000000" x="134.8106603190037" y="3" font-family="Helvetica Neue, Helvetica, Arial, sans-serif">HAS_VERSION</text></g><g class="relationship" transform="translate(-471.2254861590682 130.96919639969605) rotate(257.13741199075355)"><path class="b-outline" fill="#A5ABB6" stroke="none" d="M 25 0.5 L 157.84746679724614 0.5 L 157.84746679724614 -0.5 L 25 -0.5 Z M 220.75371679724614 0.5 L 353.6011835944923 0.5 L 353.6011835944923 3.5 L 360.6011835944923 0 L 353.6011835944923 -3.5 L 353.6011835944923 -0.5 L 220.75371679724614 -0.5 Z"/><text text-anchor="middle" pointer-events="none" font-size="8px" fill="#000000" x="189.30059179724614" y="3" transform="rotate(180 189.30059179724614 0)" font-family="Helvetica Neue, Helvetica, Arial, sans-serif">HAS_VERSION</text></g><g class="relationship" transform="translate(-471.2254861590682 130.96919639969605) rotate(288.9665171102855)"><path class="b-outline" fill="#A5ABB6" stroke="none" d="M 25 0.5 L 172.13671484205275 0.5 L 172.13671484205275 -0.5 L 25 -0.5 Z M 235.04296484205275 0.5 L 382.1796796841055 0.5 L 382.1796796841055 3.5 L 389.1796796841055 0 L 382.1796796841055 -3.5 L 382.1796796841055 -0.5 L 235.04296484205275 -0.5 Z"/><text text-anchor="middle" pointer-events="none" font-size="8px" fill="#000000" x="203.58983984205275" y="3" font-family="Helvetica Neue, Helvetica, Arial, sans-serif">HAS_VERSION</text></g><g class="relationship" transform="translate(-471.2254861590682 130.96919639969605) rotate(271.10852348039873)"><path class="b-outline" fill="#A5ABB6" stroke="none" d="M 25 0.5 L 165.18454650843185 0.5 L 165.18454650843185 -0.5 L 25 -0.5 Z M 228.09079650843185 0.5 L 368.2753430168637 0.5 L 368.2753430168637 3.5 L 375.2753430168637 0 L 368.2753430168637 -3.5 L 368.2753430168637 -0.5 L 228.09079650843185 -0.5 Z"/><text text-anchor="middle" pointer-events="none" font-size="8px" fill="#000000" x="196.63767150843185" y="3" font-family="Helvetica Neue, Helvetica, Arial, sans-serif">HAS_VERSION</text></g><g class="relationship" transform="translate(-471.2254861590682 130.96919639969605) rotate(441.8982152398096)"><path class="b-outline" fill="#A5ABB6" stroke="none" d="M 25 0.5 L 83.66718730844295 0.5 L 83.66718730844295 -0.5 L 25 -0.5 Z M 146.57343730844295 0.5 L 205.2406246168859 0.5 L 205.2406246168859 3.5 L 212.2406246168859 0 L 205.2406246168859 -3.5 L 205.2406246168859 -0.5 L 146.57343730844295 -0.5 Z"/><text text-anchor="middle" pointer-events="none" font-size="8px" fill="#000000" x="115.12031230844295" y="3" font-family="Helvetica Neue, Helvetica, Arial, sans-serif">HAS_VERSION</text></g><g class="relationship" transform="translate(-471.2254861590682 130.96919639969605) rotate(216.4900431247559)"><path class="b-outline" fill="#A5ABB6" stroke="none" d="M 25 0.5 L 26.228723485667665 0.5 L 26.228723485667665 -0.5 L 25 -0.5 Z M 61.127160985667665 0.5 L 62.35588447133533 0.5 L 62.35588447133533 3.5 L 69.35588447133533 0 L 62.35588447133533 -3.5 L 62.35588447133533 -0.5 L 61.127160985667665 -0.5 Z"/><text text-anchor="middle" pointer-events="none" font-size="8px" fill="#000000" x="43.677942235667665" y="3" transform="rotate(180 43.677942235667665 0)" font-family="Helvetica Neue, Helvetica, Arial, sans-serif">HAS_…</text></g><g class="relationship" transform="translate(-471.2254861590682 130.96919639969605) rotate(230.58505239688253)"><path class="b-outline" fill="#A5ABB6" stroke="none" d="M 25 0.5 L 92.13544020109525 0.5 L 92.13544020109525 -0.5 L 25 -0.5 Z M 155.04169020109526 0.5 L 222.1771304021905 0.5 L 222.1771304021905 3.5 L 229.1771304021905 0 L 222.1771304021905 -3.5 L 222.1771304021905 -0.5 L 155.04169020109526 -0.5 Z"/><text text-anchor="middle" pointer-events="none" font-size="8px" fill="#000000" x="123.58856520109525" y="3" transform="rotate(180 123.58856520109525 0)" font-family="Helvetica Neue, Helvetica, Arial, sans-serif">HAS_VERSION</text></g><g class="relationship" transform="translate(-471.2254861590682 130.96919639969605) rotate(232.10928252489327)"><path class="b-outline" fill="#A5ABB6" stroke="none" d="M 25 0.5 L 140.89836788648026 0.5 L 140.89836788648026 -0.5 L 25 -0.5 Z M 203.80461788648026 0.5 L 319.7029857729605 0.5 L 319.7029857729605 3.5 L 326.7029857729605 0 L 319.7029857729605 -3.5 L 319.7029857729605 -0.5 L 203.80461788648026 -0.5 Z"/><text text-anchor="middle" pointer-events="none" font-size="8px" fill="#000000" x="172.35149288648026" y="3" transform="rotate(180 172.35149288648026 0)" font-family="Helvetica Neue, Helvetica, Arial, sans-serif">HAS_VERSION</text></g><g class="relationship" transform="translate(-471.2254861590682 130.96919639969605) rotate(247.57922717262795)"><path class="b-outline" fill="#A5ABB6" stroke="none" d="M 25 0.5 L 121.23985212414982 0.5 L 121.23985212414982 -0.5 L 25 -0.5 Z M 184.14610212414982 0.5 L 280.38595424829964 0.5 L 280.38595424829964 3.5 L 287.38595424829964 0 L 280.38595424829964 -3.5 L 280.38595424829964 -0.5 L 184.14610212414982 -0.5 Z"/><text text-anchor="middle" pointer-events="none" font-size="8px" fill="#000000" x="152.69297712414982" y="3" transform="rotate(180 152.69297712414982 0)" font-family="Helvetica Neue, Helvetica, Arial, sans-serif">HAS_VERSION</text></g><g class="relationship" transform="translate(-471.2254861590682 130.96919639969605) rotate(286.1550113406012)"><path class="b-outline" fill="#A5ABB6" stroke="none" d="M 24.018736134675446,-6.953439040707552 L 24.277555179777966,-5.987513214418485 A 50.19878211087631 50.19878211087631 0 0 1 26.509480220745303,-6.5311403334797475 L 26.295122912504,-7.507895647979517 A 51.19878211087631 51.19878211087631 0 0 0 24.018736134675446,-6.953439040707552 Z M 46.13674795866352,-7.924358544480022 L 45.96356430932519,-6.939468995544786 A 50.19878211087631 50.19878211087631 0 0 1 48.21633436879019,-6.4899727305392005 L 47.56215246173189,-3.5621670620431565 L 55.15691124645735,-5.451515892152506 L 49.088576911534595,-10.393713621867258 L 48.43439500447629,-7.4659079533712145 A 51.19878211087631 51.19878211087631 0 0 0 46.13674795866352,-7.924358544480022"/><text text-anchor="middle" pointer-events="none" font-size="8px" fill="#000000" x="36.20605566094475" y="-5.186831174732411" font-family="Helvetica Neue, Helvetica, Arial, sans-serif">H…</text></g><g class="relationship" transform="translate(-471.2254861590682 130.96919639969605) rotate(191.75676451593927)"><path class="b-outline" fill="#A5ABB6" stroke="none" d="M 25 0.5 L 47.259515056400275 0.5 L 47.259515056400275 -0.5 L 25 -0.5 Z M 110.16576505640028 0.5 L 132.42528011280055 0.5 L 132.42528011280055 3.5 L 139.42528011280055 0 L 132.42528011280055 -3.5 L 132.42528011280055 -0.5 L 110.16576505640028 -0.5 Z"/><text text-anchor="middle" pointer-events="none" font-size="8px" fill="#000000" x="78.71264005640028" y="3" transform="rotate(180 78.71264005640028 0)" font-family="Helvetica Neue, Helvetica, Arial, sans-serif">HAS_VERSION</text></g><g class="relationship" transform="translate(-471.2254861590682 130.96919639969605) rotate(208.4859396867255)"><path class="b-outline" fill="#A5ABB6" stroke="none" d="M 25 0.5 L 89.87565434774676 0.5 L 89.87565434774676 -0.5 L 25 -0.5 Z M 152.78190434774677 0.5 L 217.65755869549352 0.5 L 217.65755869549352 3.5 L 224.65755869549352 0 L 217.65755869549352 -3.5 L 217.65755869549352 -0.5 L 152.78190434774677 -0.5 Z"/><text text-anchor="middle" pointer-events="none" font-size="8px" fill="#000000" x="121.32877934774676" y="3" transform="rotate(180 121.32877934774676 0)" font-family="Helvetica Neue, Helvetica, Arial, sans-serif">HAS_VERSION</text></g><g class="relationship" transform="translate(-471.2254861590682 130.96919639969605) rotate(471.2013823844993)"><path class="b-outline" fill="#A5ABB6" stroke="none" d="M 25 0.5 L 26.575136978721332 0.5 L 26.575136978721332 -0.5 L 25 -0.5 Z M 51.68841822872133 0.5 L 53.263555207442664 0.5 L 53.263555207442664 3.5 L 60.263555207442664 0 L 53.263555207442664 -3.5 L 53.263555207442664 -0.5 L 51.68841822872133 -0.5 Z"/><text text-anchor="middle" pointer-events="none" font-size="8px" fill="#000000" x="39.13177760372133" y="3" transform="rotate(180 39.13177760372133 0)" font-family="Helvetica Neue, Helvetica, Arial, sans-serif">HA…</text></g><g class="relationship" transform="translate(-471.2254861590682 130.96919639969605) rotate(463.18026755339463)"><path class="b-outline" fill="#A5ABB6" stroke="none" d="M 25 0.5 L 96.13685140964157 0.5 L 96.13685140964157 -0.5 L 25 -0.5 Z M 159.04310140964157 0.5 L 230.17995281928313 0.5 L 230.17995281928313 3.5 L 237.17995281928313 0 L 230.17995281928313 -3.5 L 230.17995281928313 -0.5 L 159.04310140964157 -0.5 Z"/><text text-anchor="middle" pointer-events="none" font-size="8px" fill="#000000" x="127.58997640964157" y="3" transform="rotate(180 127.58997640964157 0)" font-family="Helvetica Neue, Helvetica, Arial, sans-serif">HAS_VERSION</text></g><g class="relationship" transform="translate(-471.2254861590682 130.96919639969605) rotate(533.7267579779402)"><path class="b-outline" fill="#A5ABB6" stroke="none" d="M 24.018736134675446,-6.953439040707552 L 24.277555179777966,-5.987513214418485 A 505.5836166826146 505.5836166826146 0 0 1 120.85883608806017,-22.05182725903819 L 120.79104633607835,-23.049526887947763 A 506.5836166826146 506.5836166826146 0 0 0 24.018736134675446,-6.953439040707552 Z M 183.717897659884,-23.407693064553598 L 183.6614693178503,-22.40928641282528 A 505.5836166826146 505.5836166826146 0 0 1 280.4193560057738,-7.445417551610275 L 279.67593516813594,-4.538989252448944 L 287.3249255100899,-6.195173646982157 L 281.4105837892909,-11.320655283825381 L 280.66716295165304,-8.414226984664051 A 506.5836166826146 506.5836166826146 0 0 0 183.717897659884,-23.407693064553598"/><text text-anchor="middle" pointer-events="none" font-size="8px" fill="#000000" x="152.25175104097238" y="-20.706659742907846" transform="rotate(180 152.25175104097238 -23.706659742907846)" font-family="Helvetica Neue, Helvetica, Arial, sans-serif">HAS_VERSION</text></g><g class="relationship" transform="translate(-471.2254861590682 130.96919639969605) rotate(433.32537801907057)"><path class="b-outline" fill="#A5ABB6" stroke="none" d="M 25 0.5 L 40.627913335268204 0.5 L 40.627913335268204 -0.5 L 25 -0.5 Z M 103.5341633352682 0.5 L 119.16207667053641 0.5 L 119.16207667053641 3.5 L 126.16207667053641 0 L 119.16207667053641 -3.5 L 119.16207667053641 -0.5 L 103.5341633352682 -0.5 Z"/><text text-anchor="middle" pointer-events="none" font-size="8px" fill="#000000" x="72.0810383352682" y="3" font-family="Helvetica Neue, Helvetica, Arial, sans-serif">HAS_VERSION</text></g><g class="relationship" transform="translate(-599.288406709885 331.4253843006027) rotate(302.57277621249415)"><path class="b-outline" fill="#A5ABB6" stroke="none" d="M 24.018736134675446,-6.953439040707552 L 24.277555179777966,-5.987513214418485 A 362.49051067683234 362.49051067683234 0 0 1 84.93848918768455,-16.81931846367678 L 84.84701503085137,-17.815125914257294 A 363.49051067683234 363.49051067683234 0 0 0 24.018736134675446,-6.953439040707552 Z M 145.98224149632796,-18.2678889846091 L 145.9055263203732,-17.27083593598121 A 362.49051067683234 362.49051067683234 0 0 1 206.72023679478716,-7.3386705334787585 L 205.98678393597356,-4.429710770281924 L 213.63005171871535,-6.112107156779866 L 207.69817393987194,-11.217283551074537 L 206.96472108105834,-8.308323787877702 A 363.49051067683234 363.49051067683234 0 0 0 145.98224149632796,-18.2678889846091"/><text text-anchor="middle" pointer-events="none" font-size="8px" fill="#000000" x="115.4087952349559" y="-15.829123643984587" font-family="Helvetica Neue, Helvetica, Arial, sans-serif">DEPENDS_ON</text></g><g class="relationship" transform="translate(-449.0902606455527 54.55534786688857) rotate(466.1550113406012)"><path class="b-outline" fill="#A5ABB6" stroke="none" d="M 24.018736134675446,-6.953439040707552 L 24.277555179777966,-5.987513214418485 A 50.19878211087631 50.19878211087631 0 0 1 26.509480220745303,-6.5311403334797475 L 26.295122912504,-7.507895647979517 A 51.19878211087631 51.19878211087631 0 0 0 24.018736134675446,-6.953439040707552 Z M 46.13674795866352,-7.924358544480022 L 45.96356430932519,-6.939468995544786 A 50.19878211087631 50.19878211087631 0 0 1 48.21633436879019,-6.4899727305392005 L 47.56215246173189,-3.5621670620431565 L 55.15691124645735,-5.451515892152506 L 49.088576911534595,-10.393713621867258 L 48.43439500447629,-7.4659079533712145 A 51.19878211087631 51.19878211087631 0 0 0 46.13674795866352,-7.924358544480022"/><text text-anchor="middle" pointer-events="none" font-size="8px" fill="#000000" x="36.20605566094475" y="-5.186831174732411" transform="rotate(180 36.20605566094475 -8.186831174732411)" font-family="Helvetica Neue, Helvetica, Arial, sans-serif">D…</text></g><g class="relationship" transform="translate(-780.9051445445813 165.01176878159447) rotate(353.7267579779402)"><path class="b-outline" fill="#A5ABB6" stroke="none" d="M 24.018736134675446,-6.953439040707552 L 24.277555179777966,-5.987513214418485 A 505.5836166826146 505.5836166826146 0 0 1 121.74658703998736,-22.11136172401109 L 121.68055318143766,-23.109179106864815 A 506.5836166826146 506.5836166826146 0 0 0 24.018736134675446,-6.953439040707552 Z M 182.82776941300736,-23.457215981220088 L 182.77309819105722,-22.45871157086907 A 505.5836166826146 505.5836166826146 0 0 1 280.4193560057738,-7.445417551610275 L 279.67593516813594,-4.538989252448944 L 287.3249255100899,-6.195173646982157 L 281.4105837892909,-11.320655283825381 L 280.66716295165304,-8.414226984664051 A 506.5836166826146 506.5836166826146 0 0 0 182.82776941300736,-23.457215981220088"/><text text-anchor="middle" pointer-events="none" font-size="8px" fill="#000000" x="152.25175104097238" y="-20.706659742907846" font-family="Helvetica Neue, Helvetica, Arial, sans-serif">DEPENDS_ON</text></g></g><g class="layer nodes"><g class="node" aria-label="graph-node21129" transform="translate(-471.2254861590682,130.96919639969605)"><circle class="b-outline" cx="0" cy="0" r="25" fill="#C990C0" stroke="#b261a5" stroke-width="2px"/><text class="caption" text-anchor="middle" pointer-events="none" x="0" y="5" font-size="10px" fill="#FFFFFF" font-family="Helvetica Neue, Helvetica, Arial, sans-serif"> rand</text></g><g class="node" aria-label="graph-node126738" transform="translate(-569.0259716433609,153.95108642315304)"><circle class="b-outline" cx="0" cy="0" r="25" fill="#F79767" stroke="#f36924" stroke-width="2px"/><text class="caption" text-anchor="middle" pointer-events="none" x="0" y="5" font-size="10px" fill="#FFFFFF" font-family="Helvetica Neue, Helvetica, Arial, sans-serif"> 112</text></g><g class="node" aria-label="graph-node118928" transform="translate(-91.17931993106183,257.9972881295959)"><circle class="b-outline" cx="0" cy="0" r="25" fill="#F79767" stroke="#f36924" stroke-width="2px"/><text class="caption" text-anchor="middle" pointer-events="none" x="0" y="5" font-size="10px" fill="#FFFFFF" font-family="Helvetica Neue, Helvetica, Arial, sans-serif"> 687</text></g><g class="node" aria-label="graph-node741541" transform="translate(-730.6072068055049,-64.63307495286183)"><circle class="b-outline" cx="0" cy="0" r="25" fill="#D9C8AE" stroke="#c0a378" stroke-width="2px"/><text class="caption" text-anchor="middle" pointer-events="none" x="0" y="5" font-size="10px" fill="#2A2C34" font-family="Helvetica Neue, Helvetica, Arial, sans-serif"> 0.3.17</text></g><g class="node" aria-label="graph-node868902" transform="translate(-616.5016154703924,19.704779633113265)"><circle class="b-outline" cx="0" cy="0" r="25" fill="#D9C8AE" stroke="#c0a378" stroke-width="2px"/><text class="caption" text-anchor="middle" pointer-events="none" x="0" y="5" font-size="10px" fill="#2A2C34" font-family="Helvetica Neue, Helvetica, Arial, sans-serif"> 0.4.1</text></g><g class="node" aria-label="graph-node859022" transform="translate(-585.4703084003897,233.21932920809743)"><circle class="b-outline" cx="0" cy="0" r="25" fill="#D9C8AE" stroke="#c0a378" stroke-width="2px"/><text class="caption" text-anchor="middle" pointer-events="none" x="0" y="5" font-size="10px" fill="#2A2C34" font-family="Helvetica Neue, Helvetica, Arial, sans-serif"> 0.7.0</text></g><g class="node" aria-label="graph-node858518" transform="translate(-684.9711854379452,372.60005959085737)"><circle class="b-outline" cx="0" cy="0" r="25" fill="#D9C8AE" stroke="#c0a378" stroke-width="2px"/><text class="caption" text-anchor="middle" pointer-events="none" x="0" y="5" font-size="10px" fill="#2A2C34" font-family="Helvetica Neue, Helvetica, Arial, sans-serif"> 0.3.16</text></g><g class="node" aria-label="graph-node858226" transform="translate(-476.34228967119014,-24.904874420480105)"><circle class="b-outline" cx="0" cy="0" r="25" fill="#D9C8AE" stroke="#c0a378" stroke-width="2px"/><text class="caption" text-anchor="middle" pointer-events="none" x="0" y="5" font-size="10px" fill="#2A2C34" font-family="Helvetica Neue, Helvetica, Arial, sans-serif"> 0.8.4</text></g><g class="node" aria-label="graph-node852920" transform="translate(-667.8126580346548,188.14083500201525)"><circle class="b-outline" cx="0" cy="0" r="25" fill="#D9C8AE" stroke="#c0a378" stroke-width="2px"/><text class="caption" text-anchor="middle" pointer-events="none" x="0" y="5" font-size="10px" fill="#2A2C34" font-family="Helvetica Neue, Helvetica, Arial, sans-serif"> 0.8.5</text></g><g class="node" aria-label="graph-node852145" transform="translate(-154.98724045254625,91.36070961077077)"><circle class="b-outline" cx="0" cy="0" r="25" fill="#D9C8AE" stroke="#c0a378" stroke-width="2px"/><text class="caption" text-anchor="middle" pointer-events="none" x="0" y="5" font-size="10px" fill="#2A2C34" font-family="Helvetica Neue, Helvetica, Arial, sans-serif"> 0.6.2</text></g><g class="node" aria-label="graph-node850880" transform="translate(-397.13910088859046,-50.2164100978844)"><circle class="b-outline" cx="0" cy="0" r="25" fill="#D9C8AE" stroke="#c0a378" stroke-width="2px"/><text class="caption" text-anchor="middle" pointer-events="none" x="0" y="5" font-size="10px" fill="#2A2C34" font-family="Helvetica Neue, Helvetica, Arial, sans-serif"> 0.6.3</text></g><g class="node" aria-label="graph-node844441" transform="translate(-721.0570106577643,105.13905684418376)"><circle class="b-outline" cx="0" cy="0" r="25" fill="#D9C8AE" stroke="#c0a378" stroke-width="2px"/><text class="caption" text-anchor="middle" pointer-events="none" x="0" y="5" font-size="10px" fill="#2A2C34" font-family="Helvetica Neue, Helvetica, Arial, sans-serif"> 0.3.12</text></g><g class="node" aria-label="graph-node842447" transform="translate(-376.44037243074615,113.74153762313371)"><circle class="b-outline" cx="0" cy="0" r="25" fill="#D9C8AE" stroke="#c0a378" stroke-width="2px"/><text class="caption" text-anchor="middle" pointer-events="none" x="0" y="5" font-size="10px" fill="#2A2C34" font-family="Helvetica Neue, Helvetica, Arial, sans-serif"> 0.1.2</text></g><g class="node" aria-label="graph-node834913" transform="translate(-607.1222909788279,429.2099043072625)"><circle class="b-outline" cx="0" cy="0" r="25" fill="#D9C8AE" stroke="#c0a378" stroke-width="2px"/><text class="caption" text-anchor="middle" pointer-events="none" x="0" y="5" font-size="10px" fill="#2A2C34" font-family="Helvetica Neue, Helvetica, Arial, sans-serif"> 0.5.2</text></g><g class="node" aria-label="graph-node832899" transform="translate(-599.288406709885,331.4253843006027)"><circle class="b-outline" cx="0" cy="0" r="25" fill="#D9C8AE" stroke="#c0a378" stroke-width="2px"/><text class="caption" text-anchor="middle" pointer-events="none" x="0" y="5" font-size="10px" fill="#2A2C34" font-family="Helvetica Neue, Helvetica, Arial, sans-serif"> 0.3.23</text></g><g class="node" aria-label="graph-node820345" transform="translate(-256.63080472858627,331.06703229378127)"><circle class="b-outline" cx="0" cy="0" r="25" fill="#D9C8AE" stroke="#c0a378" stroke-width="2px"/><text class="caption" text-anchor="middle" pointer-events="none" x="0" y="5" font-size="10px" fill="#2A2C34" font-family="Helvetica Neue, Helvetica, Arial, sans-serif"> 0.3.9</text></g><g class="node" aria-label="graph-node817106" transform="translate(-785.2545807669088,32.56977403494816)"><circle class="b-outline" cx="0" cy="0" r="25" fill="#D9C8AE" stroke="#c0a378" stroke-width="2px"/><text class="caption" text-anchor="middle" pointer-events="none" x="0" y="5" font-size="10px" fill="#2A2C34" font-family="Helvetica Neue, Helvetica, Arial, sans-serif"> 0.6.5</text></g><g class="node" aria-label="graph-node814295" transform="translate(-291.8616221344398,416.2692818929967)"><circle class="b-outline" cx="0" cy="0" r="25" fill="#D9C8AE" stroke="#c0a378" stroke-width="2px"/><text class="caption" text-anchor="middle" pointer-events="none" x="0" y="5" font-size="10px" fill="#2A2C34" font-family="Helvetica Neue, Helvetica, Arial, sans-serif"> 0.3.14</text></g><g class="node" aria-label="graph-node800818" transform="translate(-752.6115318437652,253.58799262139567)"><circle class="b-outline" cx="0" cy="0" r="25" fill="#D9C8AE" stroke="#c0a378" stroke-width="2px"/><text class="caption" text-anchor="middle" pointer-events="none" x="0" y="5" font-size="10px" fill="#2A2C34" font-family="Helvetica Neue, Helvetica, Arial, sans-serif"> 0.5.6</text></g><g class="node" aria-label="graph-node800874" transform="translate(-515.6930550070064,302.1932333127971)"><circle class="b-outline" cx="0" cy="0" r="25" fill="#D9C8AE" stroke="#c0a378" stroke-width="2px"/><text class="caption" text-anchor="middle" pointer-events="none" x="0" y="5" font-size="10px" fill="#2A2C34" font-family="Helvetica Neue, Helvetica, Arial, sans-serif"> 0.3.0</text></g><g class="node" aria-label="graph-node785984" transform="translate(-470.8502122116885,464.21019341058735)"><circle class="b-outline" cx="0" cy="0" r="25" fill="#D9C8AE" stroke="#c0a378" stroke-width="2px"/><text class="caption" text-anchor="middle" pointer-events="none" x="0" y="5" font-size="10px" fill="#2A2C34" font-family="Helvetica Neue, Helvetica, Arial, sans-serif"> 0.2.0</text></g><g class="node" aria-label="graph-node778671" transform="translate(-348.4231544911997,344.9693695722831)"><circle class="b-outline" cx="0" cy="0" r="25" fill="#D9C8AE" stroke="#c0a378" stroke-width="2px"/><text class="caption" text-anchor="middle" pointer-events="none" x="0" y="5" font-size="10px" fill="#2A2C34" font-family="Helvetica Neue, Helvetica, Arial, sans-serif"> 0.6.4</text></g><g class="node" aria-label="graph-node779197" transform="translate(-242.58251220602892,112.28716467047258)"><circle class="b-outline" cx="0" cy="0" r="25" fill="#D9C8AE" stroke="#c0a378" stroke-width="2px"/><text class="caption" text-anchor="middle" pointer-events="none" x="0" y="5" font-size="10px" fill="#2A2C34" font-family="Helvetica Neue, Helvetica, Arial, sans-serif"> 0.8.3</text></g><g class="node" aria-label="graph-node777252" transform="translate(-219.2486437192058,165.72682142263304)"><circle class="b-outline" cx="0" cy="0" r="25" fill="#D9C8AE" stroke="#c0a378" stroke-width="2px"/><text class="caption" text-anchor="middle" pointer-events="none" x="0" y="5" font-size="10px" fill="#2A2C34" font-family="Helvetica Neue, Helvetica, Arial, sans-serif"> 0.3.18</text></g><g class="node" aria-label="graph-node776484" transform="translate(-206.66304145021462,407.98322151144123)"><circle class="b-outline" cx="0" cy="0" r="25" fill="#D9C8AE" stroke="#c0a378" stroke-width="2px"/><text class="caption" text-anchor="middle" pointer-events="none" x="0" y="5" font-size="10px" fill="#2A2C34" font-family="Helvetica Neue, Helvetica, Arial, sans-serif"> 0.7.3</text></g><g class="node" aria-label="graph-node770708" transform="translate(-311.1133314353941,-174.10401849542944)"><circle class="b-outline" cx="0" cy="0" r="25" fill="#D9C8AE" stroke="#c0a378" stroke-width="2px"/><text class="caption" text-anchor="middle" pointer-events="none" x="0" y="5" font-size="10px" fill="#2A2C34" font-family="Helvetica Neue, Helvetica, Arial, sans-serif"> 0.8.2</text></g><g class="node" aria-label="graph-node738526" transform="translate(-253.13524586457567,255.58317680602116)"><circle class="b-outline" cx="0" cy="0" r="25" fill="#D9C8AE" stroke="#c0a378" stroke-width="2px"/><text class="caption" text-anchor="middle" pointer-events="none" x="0" y="5" font-size="10px" fill="#2A2C34" font-family="Helvetica Neue, Helvetica, Arial, sans-serif"> 0.3.11</text></g><g class="node" aria-label="graph-node254346" transform="translate(-132.46685942306746,347.3875329171076)"><circle class="b-outline" cx="0" cy="0" r="25" fill="#D9C8AE" stroke="#c0a378" stroke-width="2px"/><text class="caption" text-anchor="middle" pointer-events="none" x="0" y="5" font-size="10px" fill="#2A2C34" font-family="Helvetica Neue, Helvetica, Arial, sans-serif"> 0.4.0-pr…</text></g><g class="node" aria-label="graph-node257260" transform="translate(-386.60104750747564,15.908099961338428)"><circle class="b-outline" cx="0" cy="0" r="25" fill="#D9C8AE" stroke="#c0a378" stroke-width="2px"/><text class="caption" text-anchor="middle" pointer-events="none" x="0" y="5" font-size="10px" fill="#2A2C34" font-family="Helvetica Neue, Helvetica, Arial, sans-serif"> 0.3.4</text></g><g class="node" aria-label="graph-node311186" transform="translate(-48.848346168122504,143.57630150316976)"><circle class="b-outline" cx="0" cy="0" r="25" fill="#D9C8AE" stroke="#c0a378" stroke-width="2px"/><text class="caption" text-anchor="middle" pointer-events="none" x="0" y="5" font-size="10px" fill="#2A2C34" font-family="Helvetica Neue, Helvetica, Arial, sans-serif"> 0.6.0-pr…</text></g><g class="node" aria-label="graph-node317347" transform="translate(-328.89058492814416,268.15861773534726)"><circle class="b-outline" cx="0" cy="0" r="25" fill="#D9C8AE" stroke="#c0a378" stroke-width="2px"/><text class="caption" text-anchor="middle" pointer-events="none" x="0" y="5" font-size="10px" fill="#2A2C34" font-family="Helvetica Neue, Helvetica, Arial, sans-serif"> 0.5.5</text></g><g class="node" aria-label="graph-node316371" transform="translate(-320.87077247454346,-9.460480691710412)"><circle class="b-outline" cx="0" cy="0" r="25" fill="#D9C8AE" stroke="#c0a378" stroke-width="2px"/><text class="caption" text-anchor="middle" pointer-events="none" x="0" y="5" font-size="10px" fill="#2A2C34" font-family="Helvetica Neue, Helvetica, Arial, sans-serif"> 0.5.3</text></g><g class="node" aria-label="graph-node326501" transform="translate(-182.38377261734618,266.3412019034329)"><circle class="b-outline" cx="0" cy="0" r="25" fill="#D9C8AE" stroke="#c0a378" stroke-width="2px"/><text class="caption" text-anchor="middle" pointer-events="none" x="0" y="5" font-size="10px" fill="#2A2C34" font-family="Helvetica Neue, Helvetica, Arial, sans-serif"> 0.3.3</text></g><g class="node" aria-label="graph-node345730" transform="translate(-305.40450699419125,75.95836988505656)"><circle class="b-outline" cx="0" cy="0" r="25" fill="#D9C8AE" stroke="#c0a378" stroke-width="2px"/><text class="caption" text-anchor="middle" pointer-events="none" x="0" y="5" font-size="10px" fill="#2A2C34" font-family="Helvetica Neue, Helvetica, Arial, sans-serif"> 0.3.2</text></g><g class="node" aria-label="graph-node354006" transform="translate(-232.63464343401625,-47.12179314998434)"><circle class="b-outline" cx="0" cy="0" r="25" fill="#D9C8AE" stroke="#c0a378" stroke-width="2px"/><text class="caption" text-anchor="middle" pointer-events="none" x="0" y="5" font-size="10px" fill="#2A2C34" font-family="Helvetica Neue, Helvetica, Arial, sans-serif"> 0.3.1</text></g><g class="node" aria-label="graph-node353749" transform="translate(-134.1074398759928,181.41338639280798)"><circle class="b-outline" cx="0" cy="0" r="25" fill="#D9C8AE" stroke="#c0a378" stroke-width="2px"/><text class="caption" text-anchor="middle" pointer-events="none" x="0" y="5" font-size="10px" fill="#2A2C34" font-family="Helvetica Neue, Helvetica, Arial, sans-serif"> 0.5.0-pr…</text></g><g class="node" aria-label="graph-node368115" transform="translate(-402.2766205631141,-203.51077437769817)"><circle class="b-outline" cx="0" cy="0" r="25" fill="#D9C8AE" stroke="#c0a378" stroke-width="2px"/><text class="caption" text-anchor="middle" pointer-events="none" x="0" y="5" font-size="10px" fill="#2A2C34" font-family="Helvetica Neue, Helvetica, Arial, sans-serif"> 0.3.8</text></g><g class="node" aria-label="graph-node377874" transform="translate(-74.64786916849076,57.41969168773255)"><circle class="b-outline" cx="0" cy="0" r="25" fill="#D9C8AE" stroke="#c0a378" stroke-width="2px"/><text class="caption" text-anchor="middle" pointer-events="none" x="0" y="5" font-size="10px" fill="#2A2C34" font-family="Helvetica Neue, Helvetica, Arial, sans-serif"> 0.7.0-pr…</text></g><g class="node" aria-label="graph-node380326" transform="translate(-150.45910560239284,-0.9105770175561249)"><circle class="b-outline" cx="0" cy="0" r="25" fill="#D9C8AE" stroke="#c0a378" stroke-width="2px"/><text class="caption" text-anchor="middle" pointer-events="none" x="0" y="5" font-size="10px" fill="#2A2C34" font-family="Helvetica Neue, Helvetica, Arial, sans-serif"> 0.8.1</text></g><g class="node" aria-label="graph-node412451" transform="translate(-152.7465367094591,-191.76413809917346)"><circle class="b-outline" cx="0" cy="0" r="25" fill="#D9C8AE" stroke="#c0a378" stroke-width="2px"/><text class="caption" text-anchor="middle" pointer-events="none" x="0" y="5" font-size="10px" fill="#2A2C34" font-family="Helvetica Neue, Helvetica, Arial, sans-serif"> 0.7.0-pr…</text></g><g class="node" aria-label="graph-node412595" transform="translate(-307.02300195583774,172.3928764080618)"><circle class="b-outline" cx="0" cy="0" r="25" fill="#D9C8AE" stroke="#c0a378" stroke-width="2px"/><text class="caption" text-anchor="middle" pointer-events="none" x="0" y="5" font-size="10px" fill="#2A2C34" font-family="Helvetica Neue, Helvetica, Arial, sans-serif"> 0.3.10</text></g><g class="node" aria-label="graph-node417331" transform="translate(-69.47434148298751,-41.980683017076664)"><circle class="b-outline" cx="0" cy="0" r="25" fill="#D9C8AE" stroke="#c0a378" stroke-width="2px"/><text class="caption" text-anchor="middle" pointer-events="none" x="0" y="5" font-size="10px" fill="#2A2C34" font-family="Helvetica Neue, Helvetica, Arial, sans-serif"> 0.1.1</text></g><g class="node" aria-label="graph-node417973" transform="translate(-148.7704308109086,-93.1201181206882)"><circle class="b-outline" cx="0" cy="0" r="25" fill="#D9C8AE" stroke="#c0a378" stroke-width="2px"/><text class="caption" text-anchor="middle" pointer-events="none" x="0" y="5" font-size="10px" fill="#2A2C34" font-family="Helvetica Neue, Helvetica, Arial, sans-serif"> 0.1.3</text></g><g class="node" aria-label="graph-node439026" transform="translate(-245.21837080348084,-230.36563236470667)"><circle class="b-outline" cx="0" cy="0" r="25" fill="#D9C8AE" stroke="#c0a378" stroke-width="2px"/><text class="caption" text-anchor="middle" pointer-events="none" x="0" y="5" font-size="10px" fill="#2A2C34" font-family="Helvetica Neue, Helvetica, Arial, sans-serif"> 0.4.4</text></g><g class="node" aria-label="graph-node443475" transform="translate(-228.47628300159067,-138.01993939247035)"><circle class="b-outline" cx="0" cy="0" r="25" fill="#D9C8AE" stroke="#c0a378" stroke-width="2px"/><text class="caption" text-anchor="middle" pointer-events="none" x="0" y="5" font-size="10px" fill="#2A2C34" font-family="Helvetica Neue, Helvetica, Arial, sans-serif"> 0.3.20</text></g><g class="node" aria-label="graph-node453346" transform="translate(-381.8926005286407,-118.9532697863068)"><circle class="b-outline" cx="0" cy="0" r="25" fill="#D9C8AE" stroke="#c0a378" stroke-width="2px"/><text class="caption" text-anchor="middle" pointer-events="none" x="0" y="5" font-size="10px" fill="#2A2C34" font-family="Helvetica Neue, Helvetica, Arial, sans-serif"> 0.3.15</text></g><g class="node" aria-label="graph-node470645" transform="translate(-493.9851512937824,-186.34329248717958)"><circle class="b-outline" cx="0" cy="0" r="25" fill="#D9C8AE" stroke="#c0a378" stroke-width="2px"/><text class="caption" text-anchor="middle" pointer-events="none" x="0" y="5" font-size="10px" fill="#2A2C34" font-family="Helvetica Neue, Helvetica, Arial, sans-serif"> 0.5.0-pr…</text></g><g class="node" aria-label="graph-node486695" transform="translate(-539.1322835572378,-99.55000594135171)"><circle class="b-outline" cx="0" cy="0" r="25" fill="#D9C8AE" stroke="#c0a378" stroke-width="2px"/><text class="caption" text-anchor="middle" pointer-events="none" x="0" y="5" font-size="10px" fill="#2A2C34" font-family="Helvetica Neue, Helvetica, Arial, sans-serif"> 0.4.6</text></g><g class="node" aria-label="graph-node508423" transform="translate(-228.62596353434634,44.114588177385095)"><circle class="b-outline" cx="0" cy="0" r="25" fill="#D9C8AE" stroke="#c0a378" stroke-width="2px"/><text class="caption" text-anchor="middle" pointer-events="none" x="0" y="5" font-size="10px" fill="#2A2C34" font-family="Helvetica Neue, Helvetica, Arial, sans-serif"> 0.3.7</text></g><g class="node" aria-label="graph-node564782" transform="translate(-561.5865858229483,-17.128096376006006)"><circle class="b-outline" cx="0" cy="0" r="25" fill="#D9C8AE" stroke="#c0a378" stroke-width="2px"/><text class="caption" text-anchor="middle" pointer-events="none" x="0" y="5" font-size="10px" fill="#2A2C34" font-family="Helvetica Neue, Helvetica, Arial, sans-serif"> 0.6.1</text></g><g class="node" aria-label="graph-node573135" transform="translate(-379.77365167779686,432.81602612040865)"><circle class="b-outline" cx="0" cy="0" r="25" fill="#D9C8AE" stroke="#c0a378" stroke-width="2px"/><text class="caption" text-anchor="middle" pointer-events="none" x="0" y="5" font-size="10px" fill="#2A2C34" font-family="Helvetica Neue, Helvetica, Arial, sans-serif"> 0.5.0-pr…</text></g><g class="node" aria-label="graph-node587799" transform="translate(-396.57851689387235,185.2022814250619)"><circle class="b-outline" cx="0" cy="0" r="25" fill="#D9C8AE" stroke="#c0a378" stroke-width="2px"/><text class="caption" text-anchor="middle" pointer-events="none" x="0" y="5" font-size="10px" fill="#2A2C34" font-family="Helvetica Neue, Helvetica, Arial, sans-serif"> 0.6.0-pr…</text></g><g class="node" aria-label="graph-node607201" transform="translate(-662.0438522116317,279.5740931660028)"><circle class="b-outline" cx="0" cy="0" r="25" fill="#D9C8AE" stroke="#c0a378" stroke-width="2px"/><text class="caption" text-anchor="middle" pointer-events="none" x="0" y="5" font-size="10px" fill="#2A2C34" font-family="Helvetica Neue, Helvetica, Arial, sans-serif"> 0.8.0</text></g><g class="node" aria-label="graph-node615691" transform="translate(-654.0988229035626,-235.57790997942186)"><circle class="b-outline" cx="0" cy="0" r="25" fill="#D9C8AE" stroke="#c0a378" stroke-width="2px"/><text class="caption" text-anchor="middle" pointer-events="none" x="0" y="5" font-size="10px" fill="#2A2C34" font-family="Helvetica Neue, Helvetica, Arial, sans-serif"> 0.3.13</text></g><g class="node" aria-label="graph-node611554" transform="translate(-453.1354008481659,-103.84094538117847)"><circle class="b-outline" cx="0" cy="0" r="25" fill="#D9C8AE" stroke="#c0a378" stroke-width="2px"/><text class="caption" text-anchor="middle" pointer-events="none" x="0" y="5" font-size="10px" fill="#2A2C34" font-family="Helvetica Neue, Helvetica, Arial, sans-serif"> 0.5.0</text></g><g class="node" aria-label="graph-node619722" transform="translate(-303.27622809256553,-88.83162649782308)"><circle class="b-outline" cx="0" cy="0" r="25" fill="#D9C8AE" stroke="#c0a378" stroke-width="2px"/><text class="caption" text-anchor="middle" pointer-events="none" x="0" y="5" font-size="10px" fill="#2A2C34" font-family="Helvetica Neue, Helvetica, Arial, sans-serif"> 0.1.4</text></g><g class="node" aria-label="graph-node638491" transform="translate(-557.0655484191627,-244.9560042728)"><circle class="b-outline" cx="0" cy="0" r="25" fill="#D9C8AE" stroke="#c0a378" stroke-width="2px"/><text class="caption" text-anchor="middle" pointer-events="none" x="0" y="5" font-size="10px" fill="#2A2C34" font-family="Helvetica Neue, Helvetica, Arial, sans-serif"> 0.5.1</text></g><g class="node" aria-label="graph-node645712" transform="translate(-336.61064958295526,-260.7241183719689)"><circle class="b-outline" cx="0" cy="0" r="25" fill="#D9C8AE" stroke="#c0a378" stroke-width="2px"/><text class="caption" text-anchor="middle" pointer-events="none" x="0" y="5" font-size="10px" fill="#2A2C34" font-family="Helvetica Neue, Helvetica, Arial, sans-serif"> 0.7.1</text></g><g class="node" aria-label="graph-node642550" transform="translate(-463.4816882968821,-269.231233162714)"><circle class="b-outline" cx="0" cy="0" r="25" fill="#D9C8AE" stroke="#c0a378" stroke-width="2px"/><text class="caption" text-anchor="middle" pointer-events="none" x="0" y="5" font-size="10px" fill="#2A2C34" font-family="Helvetica Neue, Helvetica, Arial, sans-serif"> 0.3.19</text></g><g class="node" aria-label="graph-node653360" transform="translate(-437.79067359498987,365.8419859633556)"><circle class="b-outline" cx="0" cy="0" r="25" fill="#D9C8AE" stroke="#c0a378" stroke-width="2px"/><text class="caption" text-anchor="middle" pointer-events="none" x="0" y="5" font-size="10px" fill="#2A2C34" font-family="Helvetica Neue, Helvetica, Arial, sans-serif"> 0.7.2</text></g><g class="node" aria-label="graph-node653693" transform="translate(-547.0838635077288,74.85734809297742)"><circle class="b-outline" cx="0" cy="0" r="25" fill="#D9C8AE" stroke="#c0a378" stroke-width="2px"/><text class="caption" text-anchor="middle" pointer-events="none" x="0" y="5" font-size="10px" fill="#2A2C34" font-family="Helvetica Neue, Helvetica, Arial, sans-serif"> 0.4.2</text></g><g class="node" aria-label="graph-node652653" transform="translate(-632.6107018075172,-65.39990959611931)"><circle class="b-outline" cx="0" cy="0" r="25" fill="#D9C8AE" stroke="#c0a378" stroke-width="2px"/><text class="caption" text-anchor="middle" pointer-events="none" x="0" y="5" font-size="10px" fill="#2A2C34" font-family="Helvetica Neue, Helvetica, Arial, sans-serif"> 0.4.3</text></g><g class="node" aria-label="graph-node651254" transform="translate(-687.2264606039028,-146.58903035731652)"><circle class="b-outline" cx="0" cy="0" r="25" fill="#D9C8AE" stroke="#c0a378" stroke-width="2px"/><text class="caption" text-anchor="middle" pointer-events="none" x="0" y="5" font-size="10px" fill="#2A2C34" font-family="Helvetica Neue, Helvetica, Arial, sans-serif"> 0.5.4</text></g><g class="node" aria-label="graph-node672309" transform="translate(-590.3712226563729,-157.8028207455523)"><circle class="b-outline" cx="0" cy="0" r="25" fill="#D9C8AE" stroke="#c0a378" stroke-width="2px"/><text class="caption" text-anchor="middle" pointer-events="none" x="0" y="5" font-size="10px" fill="#2A2C34" font-family="Helvetica Neue, Helvetica, Arial, sans-serif"> 0.3.5</text></g><g class="node" aria-label="graph-node685251" transform="translate(-449.0902606455527,54.55534786688857)"><circle class="b-outline" cx="0" cy="0" r="25" fill="#D9C8AE" stroke="#c0a378" stroke-width="2px"/><text class="caption" text-anchor="middle" pointer-events="none" x="0" y="5" font-size="10px" fill="#2A2C34" font-family="Helvetica Neue, Helvetica, Arial, sans-serif"> 0.3.22</text></g><g class="node" aria-label="graph-node679221" transform="translate(-632.2013578870425,97.46633888587044)"><circle class="b-outline" cx="0" cy="0" r="25" fill="#D9C8AE" stroke="#c0a378" stroke-width="2px"/><text class="caption" text-anchor="middle" pointer-events="none" x="0" y="5" font-size="10px" fill="#2A2C34" font-family="Helvetica Neue, Helvetica, Arial, sans-serif"> 0.6.0</text></g><g class="node" aria-label="graph-node691962" transform="translate(-690.6580478836916,11.896750095930319)"><circle class="b-outline" cx="0" cy="0" r="25" fill="#D9C8AE" stroke="#c0a378" stroke-width="2px"/><text class="caption" text-anchor="middle" pointer-events="none" x="0" y="5" font-size="10px" fill="#2A2C34" font-family="Helvetica Neue, Helvetica, Arial, sans-serif"> 0.2.1</text></g><g class="node" aria-label="graph-node687119" transform="translate(-502.06080059190487,210.46169435038772)"><circle class="b-outline" cx="0" cy="0" r="25" fill="#D9C8AE" stroke="#c0a378" stroke-width="2px"/><text class="caption" text-anchor="middle" pointer-events="none" x="0" y="5" font-size="10px" fill="#2A2C34" font-family="Helvetica Neue, Helvetica, Arial, sans-serif"> 0.4.5</text></g><g class="node" aria-label="graph-node703202" transform="translate(-531.0065948529276,386.24267074369146)"><circle class="b-outline" cx="0" cy="0" r="25" fill="#D9C8AE" stroke="#c0a378" stroke-width="2px"/><text class="caption" text-anchor="middle" pointer-events="none" x="0" y="5" font-size="10px" fill="#2A2C34" font-family="Helvetica Neue, Helvetica, Arial, sans-serif"> 0.3.6</text></g><g class="node" aria-label="graph-node703260" transform="translate(-780.9051445445813,165.01176878159447)"><circle class="b-outline" cx="0" cy="0" r="25" fill="#D9C8AE" stroke="#c0a378" stroke-width="2px"/><text class="caption" text-anchor="middle" pointer-events="none" x="0" y="5" font-size="10px" fill="#2A2C34" font-family="Helvetica Neue, Helvetica, Arial, sans-serif"> 0.3.21-p…</text></g><g class="node" aria-label="graph-node703116" transform="translate(-427.8516077396811,275.7748595976848)"><circle class="b-outline" cx="0" cy="0" r="25" fill="#D9C8AE" stroke="#c0a378" stroke-width="2px"/><text class="caption" text-anchor="middle" pointer-events="none" x="0" y="5" font-size="10px" fill="#2A2C34" font-family="Helvetica Neue, Helvetica, Arial, sans-serif"> 0.7.0-pr…</text></g></g></svg>