<svg xmlns="http://www.w3.org/2000/svg" width="1052.7884521484375" height="1028.4227294921875" viewBox="-593.6142578125 -517.7434692382812 1052.7884521484375 1028.4227294921875"><title>Neo4j Graph Visualization</title><desc>Created using Neo4j (http://www.neo4j.com/)</desc><g class="layer relationships"><g class="relationship" transform="translate(-50.97685453939855 -35.357476686768166) rotate(426.535743425325)"><path class="b-outline" fill="#A5ABB6" stroke="none" d="M 25 0.5 L 168.3829721482717 0.5 L 168.3829721482717 -0.5 L 25 -0.5 Z M 199.2696908982717 0.5 L 342.6526630465434 0.5 L 342.6526630465434 3.5 L 349.6526630465434 0 L 342.6526630465434 -3.5 L 342.6526630465434 -0.5 L 199.2696908982717 -0.5 Z"/><text text-anchor="middle" pointer-events="none" font-size="8px" fill="#000000" x="183.8263315232717" y="3" font-family="Helvetica Neue, Helvetica, Arial, sans-serif">OWNS</text></g><g class="relationship" transform="translate(98.20117848456705 308.3146525162957) rotate(485.51628019443365)"><path class="b-outline" fill="#A5ABB6" stroke="none" d="M 25 0.5 L 42.64306939871885 0.5 L 42.64306939871885 -0.5 L 25 -0.5 Z M 118.72510064871885 0.5 L 136.3681700474377 0.5 L 136.3681700474377 3.5 L 143.3681700474377 0 L 136.3681700474377 -3.5 L 136.3681700474377 -0.5 L 118.72510064871885 -0.5 Z"/><text text-anchor="middle" pointer-events="none" font-size="8px" fill="#000000" x="80.68408502371885" y="3" transform="rotate(180 80.68408502371885 0)" font-family="Helvetica Neue, Helvetica, Arial, sans-serif">IS_TAGGED_WITH</text></g><g class="relationship" transform="translate(98.20117848456705 308.3146525162957) rotate(231.2035582029647)"><path class="b-outline" fill="#A5ABB6" stroke="none" d="M 25 0.5 L 75.9610090344758 0.5 L 75.9610090344758 -0.5 L 25 -0.5 Z M 138.8672590344758 0.5 L 189.8282680689516 0.5 L 189.8282680689516 3.5 L 196.8282680689516 0 L 189.8282680689516 -3.5 L 189.8282680689516 -0.5 L 138.8672590344758 -0.5 Z"/><text text-anchor="middle" pointer-events="none" font-size="8px" fill="#000000" x="107.4141340344758" y="3" transform="rotate(180 107.4141340344758 0)" font-family="Helvetica Neue, Helvetica, Arial, sans-serif">HAS_VERSION</text></g><g class="relationship" transform="translate(290.6812018652612 -7.110642349758199) rotate(481.39253568244544)"><path class="b-outline" fill="#A5ABB6" stroke="none" d="M 25 0.5 L 157.88663683384434 0.5 L 157.88663683384434 -0.5 L 25 -0.5 Z M 204.62882433384434 0.5 L 337.51546116768867 0.5 L 337.51546116768867 3.5 L 344.51546116768867 0 L 337.51546116768867 -3.5 L 337.51546116768867 -0.5 L 204.62882433384434 -0.5 Z"/><text text-anchor="middle" pointer-events="none" font-size="8px" fill="#000000" x="181.25773058384434" y="3" transform="rotate(180 181.25773058384434 0)" font-family="Helvetica Neue, Helvetica, Arial, sans-serif">CONTAINS</text></g><g class="relationship" transform="translate(8.799559675270546 44.12393232065105) rotate(349.6984262320676)"><path class="b-outline" fill="#A5ABB6" stroke="none" d="M 25 0.5 L 116.37889913427875 0.5 L 116.37889913427875 -0.5 L 25 -0.5 Z M 163.12108663427875 0.5 L 254.4999857685575 0.5 L 254.4999857685575 3.5 L 261.4999857685575 0 L 254.4999857685575 -3.5 L 254.4999857685575 -0.5 L 163.12108663427875 -0.5 Z"/><text text-anchor="middle" pointer-events="none" font-size="8px" fill="#000000" x="139.74999288427875" y="3" font-family="Helvetica Neue, Helvetica, Arial, sans-serif">CONTAINS</text></g><g class="relationship" transform="translate(98.20117848456705 308.3146525162957) rotate(204.94568550679458)"><path class="b-outline" fill="#A5ABB6" stroke="none" d="M 25 0.5 L 65.15041743168445 0.5 L 65.15041743168445 -0.5 L 25 -0.5 Z M 128.05666743168445 0.5 L 168.2070848633689 0.5 L 168.2070848633689 3.5 L 175.2070848633689 0 L 168.2070848633689 -3.5 L 168.2070848633689 -0.5 L 128.05666743168445 -0.5 Z"/><text text-anchor="middle" pointer-events="none" font-size="8px" fill="#000000" x="96.60354243168445" y="3" transform="rotate(180 96.60354243168445 0)" font-family="Helvetica Neue, Helvetica, Arial, sans-serif">HAS_VERSION</text></g><g class="relationship" transform="translate(98.20117848456705 308.3146525162957) rotate(277.9841903713147)"><path class="b-outline" fill="#A5ABB6" stroke="none" d="M 25 0.5 L 135.28388159418498 0.5 L 135.28388159418498 -0.5 L 25 -0.5 Z M 211.36591284418498 0.5 L 321.64979443836995 0.5 L 321.64979443836995 3.5 L 328.64979443836995 0 L 321.64979443836995 -3.5 L 321.64979443836995 -0.5 L 211.36591284418498 -0.5 Z"/><text text-anchor="middle" pointer-events="none" font-size="8px" fill="#000000" x="173.32489721918498" y="3" font-family="Helvetica Neue, Helvetica, Arial, sans-serif">IS_TAGGED_WITH</text></g><g class="relationship" transform="translate(98.20117848456705 308.3146525162957) rotate(451.9021151341097)"><path class="b-outline" fill="#A5ABB6" stroke="none" d="M 25 0.5 L 45.18905517928572 0.5 L 45.18905517928572 -0.5 L 25 -0.5 Z M 121.27108642928572 0.5 L 141.46014160857143 0.5 L 141.46014160857143 3.5 L 148.46014160857143 0 L 141.46014160857143 -3.5 L 141.46014160857143 -0.5 L 121.27108642928572 -0.5 Z"/><text text-anchor="middle" pointer-events="none" font-size="8px" fill="#000000" x="83.23007080428572" y="3" transform="rotate(180 83.23007080428572 0)" font-family="Helvetica Neue, Helvetica, Arial, sans-serif">IS_TAGGED_WITH</text></g><g class="relationship" transform="translate(98.20117848456705 308.3146525162957) rotate(418.93160076866377)"><path class="b-outline" fill="#A5ABB6" stroke="none" d="M 25 0.5 L 46.137546901696965 0.5 L 46.137546901696965 -0.5 L 25 -0.5 Z M 122.21957815169696 0.5 L 143.35712505339393 0.5 L 143.35712505339393 3.5 L 150.35712505339393 0 L 143.35712505339393 -3.5 L 143.35712505339393 -0.5 L 122.21957815169696 -0.5 Z"/><text text-anchor="middle" pointer-events="none" font-size="8px" fill="#000000" x="84.17856252669696" y="3" font-family="Helvetica Neue, Helvetica, Arial, sans-serif">IS_TAGGED_WITH</text></g><g class="relationship" transform="translate(98.20117848456705 308.3146525162957) rotate(385.4879739790073)"><path class="b-outline" fill="#A5ABB6" stroke="none" d="M 25 0.5 L 43.06548466265404 0.5 L 43.06548466265404 -0.5 L 25 -0.5 Z M 119.14751591265404 0.5 L 137.2130005753081 0.5 L 137.2130005753081 3.5 L 144.2130005753081 0 L 137.2130005753081 -3.5 L 137.2130005753081 -0.5 L 119.14751591265404 -0.5 Z"/><text text-anchor="middle" pointer-events="none" font-size="8px" fill="#000000" x="81.10650028765404" y="3" font-family="Helvetica Neue, Helvetica, Arial, sans-serif">IS_TAGGED_WITH</text></g><g class="relationship" transform="translate(-50.97685453939855 -35.357476686768166) rotate(393.0667993784051)"><path class="b-outline" fill="#A5ABB6" stroke="none" d="M 25 0.5 L 169.06873449907994 0.5 L 169.06873449907994 -0.5 L 25 -0.5 Z M 199.95545324907994 0.5 L 344.0241877481599 0.5 L 344.0241877481599 3.5 L 351.0241877481599 0 L 344.0241877481599 -3.5 L 344.0241877481599 -0.5 L 199.95545324907994 -0.5 Z"/><text text-anchor="middle" pointer-events="none" font-size="8px" fill="#000000" x="184.51209387407994" y="3" font-family="Helvetica Neue, Helvetica, Arial, sans-serif">OWNS</text></g><g class="relationship" transform="translate(264.1445832698943 169.80750376717612) rotate(399.7581049241369)"><path class="b-outline" fill="#A5ABB6" stroke="none" d="M 25 0.5 L 42.65167491829898 0.5 L 42.65167491829898 -0.5 L 25 -0.5 Z M 118.73370616829898 0.5 L 136.38538108659796 0.5 L 136.38538108659796 3.5 L 143.38538108659796 0 L 136.38538108659796 -3.5 L 136.38538108659796 -0.5 L 118.73370616829898 -0.5 Z"/><text text-anchor="middle" pointer-events="none" font-size="8px" fill="#000000" x="80.69269054329898" y="3" font-family="Helvetica Neue, Helvetica, Arial, sans-serif">IS_TAGGED_WITH</text></g><g class="relationship" transform="translate(264.1445832698943 169.80750376717612) rotate(191.25986126098098)"><path class="b-outline" fill="#A5ABB6" stroke="none" d="M 25 0.5 L 70.28877110758856 0.5 L 70.28877110758856 -0.5 L 25 -0.5 Z M 133.19502110758856 0.5 L 178.48379221517712 0.5 L 178.48379221517712 3.5 L 185.48379221517712 0 L 178.48379221517712 -3.5 L 178.48379221517712 -0.5 L 133.19502110758856 -0.5 Z"/><text text-anchor="middle" pointer-events="none" font-size="8px" fill="#000000" x="101.74189610758856" y="3" transform="rotate(180 101.74189610758856 0)" font-family="Helvetica Neue, Helvetica, Arial, sans-serif">HAS_VERSION</text></g><g class="relationship" transform="translate(194.141308969673 264.67253233413896) rotate(306.4245427615793)"><path class="b-outline" fill="#A5ABB6" stroke="none" d="M 25 0.5 L 32.07768074481606 0.5 L 32.07768074481606 -0.5 L 25 -0.5 Z M 78.81986824481606 0.5 L 85.89754898963211 0.5 L 85.89754898963211 3.5 L 92.89754898963211 0 L 85.89754898963211 -3.5 L 85.89754898963211 -0.5 L 78.81986824481606 -0.5 Z"/><text text-anchor="middle" pointer-events="none" font-size="8px" fill="#000000" x="55.44877449481606" y="3" font-family="Helvetica Neue, Helvetica, Arial, sans-serif">CONTAINS</text></g><g class="relationship" transform="translate(8.799559675270546 44.12393232065105) rotate(409.95741686442244)"><path class="b-outline" fill="#A5ABB6" stroke="none" d="M 25 0.5 L 117.17165077347349 0.5 L 117.17165077347349 -0.5 L 25 -0.5 Z M 163.9138382734735 0.5 L 256.085489046947 0.5 L 256.085489046947 3.5 L 263.085489046947 0 L 256.085489046947 -3.5 L 256.085489046947 -0.5 L 163.9138382734735 -0.5 Z"/><text text-anchor="middle" pointer-events="none" font-size="8px" fill="#000000" x="140.5427445234735" y="3" font-family="Helvetica Neue, Helvetica, Arial, sans-serif">CONTAINS</text></g><g class="relationship" transform="translate(264.1445832698943 169.80750376717612) rotate(529.3937902438022)"><path class="b-outline" fill="#A5ABB6" stroke="none" d="M 25 0.5 L 92.03963863194097 0.5 L 92.03963863194097 -0.5 L 25 -0.5 Z M 154.945888631941 0.5 L 221.98552726388195 0.5 L 221.98552726388195 3.5 L 228.98552726388195 0 L 221.98552726388195 -3.5 L 221.98552726388195 -0.5 L 154.945888631941 -0.5 Z"/><text text-anchor="middle" pointer-events="none" font-size="8px" fill="#000000" x="123.49276363194097" y="3" transform="rotate(180 123.49276363194097 0)" font-family="Helvetica Neue, Helvetica, Arial, sans-serif">HAS_VERSION</text></g><g class="relationship" transform="translate(264.1445832698943 169.80750376717612) rotate(524.8919481924152)"><path class="b-outline" fill="#A5ABB6" stroke="none" d="M 25 0.5 L 44.508819446061906 0.5 L 44.508819446061906 -0.5 L 25 -0.5 Z M 107.4150694460619 0.5 L 126.92388889212381 0.5 L 126.92388889212381 3.5 L 133.9238888921238 0 L 126.92388889212381 -3.5 L 126.92388889212381 -0.5 L 107.4150694460619 -0.5 Z"/><text text-anchor="middle" pointer-events="none" font-size="8px" fill="#000000" x="75.9619444460619" y="3" transform="rotate(180 75.9619444460619 0)" font-family="Helvetica Neue, Helvetica, Arial, sans-serif">HAS_VERSION</text></g><g class="relationship" transform="translate(264.1445832698943 169.80750376717612) rotate(201.98041202503254)"><path class="b-outline" fill="#A5ABB6" stroke="none" d="M 25 0.5 L 25.56897224663861 0.5 L 25.56897224663861 -0.5 L 25 -0.5 Z M 82.25256599663861 0.5 L 82.82153824327722 0.5 L 82.82153824327722 3.5 L 89.82153824327722 0 L 82.82153824327722 -3.5 L 82.82153824327722 -0.5 L 82.25256599663861 -0.5 Z"/><text text-anchor="middle" pointer-events="none" font-size="8px" fill="#000000" x="53.91076912163861" y="3" transform="rotate(180 53.91076912163861 0)" font-family="Helvetica Neue, Helvetica, Arial, sans-serif">HAS_VERS…</text></g><g class="relationship" transform="translate(264.1445832698943 169.80750376717612) rotate(245.36335741928605)"><path class="b-outline" fill="#A5ABB6" stroke="none" d="M 25 0.5 L 37.831882052729924 0.5 L 37.831882052729924 -0.5 L 25 -0.5 Z M 100.73813205272992 0.5 L 113.57001410545985 0.5 L 113.57001410545985 3.5 L 120.57001410545985 0 L 113.57001410545985 -3.5 L 113.57001410545985 -0.5 L 100.73813205272992 -0.5 Z"/><text text-anchor="middle" pointer-events="none" font-size="8px" fill="#000000" x="69.28500705272992" y="3" transform="rotate(180 69.28500705272992 0)" font-family="Helvetica Neue, Helvetica, Arial, sans-serif">HAS_VERSION</text></g><g class="relationship" transform="translate(264.1445832698943 169.80750376717612) rotate(218.60696675532438)"><path class="b-outline" fill="#A5ABB6" stroke="none" d="M 25 0.5 L 66.22581719031187 0.5 L 66.22581719031187 -0.5 L 25 -0.5 Z M 129.1320671903119 0.5 L 170.35788438062374 0.5 L 170.35788438062374 3.5 L 177.35788438062374 0 L 170.35788438062374 -3.5 L 170.35788438062374 -0.5 L 129.1320671903119 -0.5 Z"/><text text-anchor="middle" pointer-events="none" font-size="8px" fill="#000000" x="97.67894219031187" y="3" transform="rotate(180 97.67894219031187 0)" font-family="Helvetica Neue, Helvetica, Arial, sans-serif">HAS_VERSION</text></g><g class="relationship" transform="translate(264.1445832698943 169.80750376717612) rotate(365.2532786723855)"><path class="b-outline" fill="#A5ABB6" stroke="none" d="M 25 0.5 L 41.82392806939656 0.5 L 41.82392806939656 -0.5 L 25 -0.5 Z M 117.90595931939656 0.5 L 134.72988738879312 0.5 L 134.72988738879312 3.5 L 141.72988738879312 0 L 134.72988738879312 -3.5 L 134.72988738879312 -0.5 L 117.90595931939656 -0.5 Z"/><text text-anchor="middle" pointer-events="none" font-size="8px" fill="#000000" x="79.86494369439656" y="3" font-family="Helvetica Neue, Helvetica, Arial, sans-serif">IS_TAGGED_WITH</text></g><g class="relationship" transform="translate(290.6812018652612 -7.110642349758199) rotate(458.53041615621896)"><path class="b-outline" fill="#A5ABB6" stroke="none" d="M 25 0.5 L 62.57752635105143 0.5 L 62.57752635105143 -0.5 L 25 -0.5 Z M 109.31971385105143 0.5 L 146.89724020210286 0.5 L 146.89724020210286 3.5 L 153.89724020210286 0 L 146.89724020210286 -3.5 L 146.89724020210286 -0.5 L 109.31971385105143 -0.5 Z"/><text text-anchor="middle" pointer-events="none" font-size="8px" fill="#000000" x="85.94862010105143" y="3" transform="rotate(180 85.94862010105143 0)" font-family="Helvetica Neue, Helvetica, Arial, sans-serif">CONTAINS</text></g><g class="relationship" transform="translate(-50.97685453939855 -35.357476686768166) rotate(307.1223663171328)"><path class="b-outline" fill="#A5ABB6" stroke="none" d="M 25 0.5 L 166.94177908451925 0.5 L 166.94177908451925 -0.5 L 25 -0.5 Z M 197.82849783451925 0.5 L 339.7702769190385 0.5 L 339.7702769190385 3.5 L 346.7702769190385 0 L 339.7702769190385 -3.5 L 339.7702769190385 -0.5 L 197.82849783451925 -0.5 Z"/><text text-anchor="middle" pointer-events="none" font-size="8px" fill="#000000" x="182.38513845951925" y="3" font-family="Helvetica Neue, Helvetica, Arial, sans-serif">OWNS</text></g><g class="relationship" transform="translate(173.39367952283763 -331.78791076040625) rotate(365.5377449175723)"><path class="b-outline" fill="#A5ABB6" stroke="none" d="M 25 0.5 L 42.96092751967268 0.5 L 42.96092751967268 -0.5 L 25 -0.5 Z M 119.04295876967268 0.5 L 137.00388628934536 0.5 L 137.00388628934536 3.5 L 144.00388628934536 0 L 137.00388628934536 -3.5 L 137.00388628934536 -0.5 L 119.04295876967268 -0.5 Z"/><text text-anchor="middle" pointer-events="none" font-size="8px" fill="#000000" x="81.00194314467268" y="3" font-family="Helvetica Neue, Helvetica, Arial, sans-serif">IS_TAGGED_WITH</text></g><g class="relationship" transform="translate(173.39367952283763 -331.78791076040625) rotate(456.3950522420278)"><path class="b-outline" fill="#A5ABB6" stroke="none" d="M 25 0.5 L 62.76272830246593 0.5 L 62.76272830246593 -0.5 L 25 -0.5 Z M 125.66897830246593 0.5 L 163.43170660493186 0.5 L 163.43170660493186 3.5 L 170.43170660493186 0 L 163.43170660493186 -3.5 L 163.43170660493186 -0.5 L 125.66897830246593 -0.5 Z"/><text text-anchor="middle" pointer-events="none" font-size="8px" fill="#000000" x="94.21585330246593" y="3" transform="rotate(180 94.21585330246593 0)" font-family="Helvetica Neue, Helvetica, Arial, sans-serif">HAS_VERSION</text></g><g class="relationship" transform="translate(290.6812018652612 -7.110642349758199) rotate(250.1380803766648)"><path class="b-outline" fill="#A5ABB6" stroke="none" d="M 25 0.5 L 145.73517172132094 0.5 L 145.73517172132094 -0.5 L 25 -0.5 Z M 192.47735922132094 0.5 L 313.2125309426419 0.5 L 313.2125309426419 3.5 L 320.2125309426419 0 L 313.2125309426419 -3.5 L 313.2125309426419 -0.5 L 192.47735922132094 -0.5 Z"/><text text-anchor="middle" pointer-events="none" font-size="8px" fill="#000000" x="169.10626547132094" y="3" transform="rotate(180 169.10626547132094 0)" font-family="Helvetica Neue, Helvetica, Arial, sans-serif">CONTAINS</text></g><g class="relationship" transform="translate(173.39367952283763 -331.78791076040625) rotate(426.1225963399918)"><path class="b-outline" fill="#A5ABB6" stroke="none" d="M 25 0.5 L 45.60427621455986 0.5 L 45.60427621455986 -0.5 L 25 -0.5 Z M 108.51052621455986 0.5 L 129.11480242911972 0.5 L 129.11480242911972 3.5 L 136.11480242911972 0 L 129.11480242911972 -3.5 L 129.11480242911972 -0.5 L 108.51052621455986 -0.5 Z"/><text text-anchor="middle" pointer-events="none" font-size="8px" fill="#000000" x="77.05740121455986" y="3" font-family="Helvetica Neue, Helvetica, Arial, sans-serif">HAS_VERSION</text></g><g class="relationship" transform="translate(173.39367952283763 -331.78791076040625) rotate(486.20251304798416)"><path class="b-outline" fill="#A5ABB6" stroke="none" d="M 25 0.5 L 50.815961196332054 0.5 L 50.815961196332054 -0.5 L 25 -0.5 Z M 113.72221119633205 0.5 L 139.5381723926641 0.5 L 139.5381723926641 3.5 L 146.5381723926641 0 L 139.5381723926641 -3.5 L 139.5381723926641 -0.5 L 113.72221119633205 -0.5 Z"/><text text-anchor="middle" pointer-events="none" font-size="8px" fill="#000000" x="82.26908619633205" y="3" transform="rotate(180 82.26908619633205 0)" font-family="Helvetica Neue, Helvetica, Arial, sans-serif">HAS_VERSION</text></g><g class="relationship" transform="translate(173.39367952283763 -331.78791076040625) rotate(436.2613512595011)"><path class="b-outline" fill="#A5ABB6" stroke="none" d="M 25 0.5 L 90.48656654611855 0.5 L 90.48656654611855 -0.5 L 25 -0.5 Z M 153.39281654611855 0.5 L 218.8793830922371 0.5 L 218.8793830922371 3.5 L 225.8793830922371 0 L 218.8793830922371 -3.5 L 218.8793830922371 -0.5 L 153.39281654611855 -0.5 Z"/><text text-anchor="middle" pointer-events="none" font-size="8px" fill="#000000" x="121.93969154611855" y="3" font-family="Helvetica Neue, Helvetica, Arial, sans-serif">HAS_VERSION</text></g><g class="relationship" transform="translate(173.39367952283763 -331.78791076040625) rotate(185.68409948255612)"><path class="b-outline" fill="#A5ABB6" stroke="none" d="M 25 0.5 L 52.82500148864911 0.5 L 52.82500148864911 -0.5 L 25 -0.5 Z M 115.73125148864911 0.5 L 143.55625297729821 0.5 L 143.55625297729821 3.5 L 150.55625297729821 0 L 143.55625297729821 -3.5 L 143.55625297729821 -0.5 L 115.73125148864911 -0.5 Z"/><text text-anchor="middle" pointer-events="none" font-size="8px" fill="#000000" x="84.27812648864911" y="3" transform="rotate(180 84.27812648864911 0)" font-family="Helvetica Neue, Helvetica, Arial, sans-serif">HAS_VERSION</text></g><g class="relationship" transform="translate(173.39367952283763 -331.78791076040625) rotate(458.9804947310833)"><path class="b-outline" fill="#A5ABB6" stroke="none" d="M 25 0.5 L 25.340021923747507 0.5 L 25.340021923747507 -0.5 L 25 -0.5 Z M 65.57439692374751 0.5 L 65.91441884749501 0.5 L 65.91441884749501 3.5 L 72.91441884749501 0 L 65.91441884749501 -3.5 L 65.91441884749501 -0.5 L 65.57439692374751 -0.5 Z"/><text text-anchor="middle" pointer-events="none" font-size="8px" fill="#000000" x="45.45720942374751" y="3" transform="rotate(180 45.45720942374751 0)" font-family="Helvetica Neue, Helvetica, Arial, sans-serif">HAS_V…</text></g><g class="relationship" transform="translate(173.39367952283763 -331.78791076040625) rotate(517.4702891329271)"><path class="b-outline" fill="#A5ABB6" stroke="none" d="M 25 0.5 L 25.70936219212434 0.5 L 25.70936219212434 -0.5 L 25 -0.5 Z M 71.27967469212433 0.5 L 71.98903688424868 0.5 L 71.98903688424868 3.5 L 78.98903688424868 0 L 71.98903688424868 -3.5 L 71.98903688424868 -0.5 L 71.27967469212433 -0.5 Z"/><text text-anchor="middle" pointer-events="none" font-size="8px" fill="#000000" x="48.49451844212434" y="3" transform="rotate(180 48.49451844212434 0)" font-family="Helvetica Neue, Helvetica, Arial, sans-serif">HAS_VE…</text></g><g class="relationship" transform="translate(173.39367952283763 -331.78791076040625) rotate(534.4350378057036)"><path class="b-outline" fill="#A5ABB6" stroke="none" d="M 25 0.5 L 96.66869481761663 0.5 L 96.66869481761663 -0.5 L 25 -0.5 Z M 159.57494481761663 0.5 L 231.24363963523325 0.5 L 231.24363963523325 3.5 L 238.24363963523325 0 L 231.24363963523325 -3.5 L 231.24363963523325 -0.5 L 159.57494481761663 -0.5 Z"/><text text-anchor="middle" pointer-events="none" font-size="8px" fill="#000000" x="128.12181981761663" y="3" transform="rotate(180 128.12181981761663 0)" font-family="Helvetica Neue, Helvetica, Arial, sans-serif">HAS_VERSION</text></g><g class="relationship" transform="translate(173.39367952283763 -331.78791076040625) rotate(515.8278918868089)"><path class="b-outline" fill="#A5ABB6" stroke="none" d="M 25 0.5 L 64.10430356015547 0.5 L 64.10430356015547 -0.5 L 25 -0.5 Z M 127.01055356015547 0.5 L 166.11485712031094 0.5 L 166.11485712031094 3.5 L 173.11485712031094 0 L 166.11485712031094 -3.5 L 166.11485712031094 -0.5 L 127.01055356015547 -0.5 Z"/><text text-anchor="middle" pointer-events="none" font-size="8px" fill="#000000" x="95.55742856015547" y="3" transform="rotate(180 95.55742856015547 0)" font-family="Helvetica Neue, Helvetica, Arial, sans-serif">HAS_VERSION</text></g><g class="relationship" transform="translate(173.39367952283763 -331.78791076040625) rotate(496.6332015541742)"><path class="b-outline" fill="#A5ABB6" stroke="none" d="M 25 0.5 L 95.23407638997483 0.5 L 95.23407638997483 -0.5 L 25 -0.5 Z M 158.14032638997483 0.5 L 228.37440277994966 0.5 L 228.37440277994966 3.5 L 235.37440277994966 0 L 228.37440277994966 -3.5 L 228.37440277994966 -0.5 L 158.14032638997483 -0.5 Z"/><text text-anchor="middle" pointer-events="none" font-size="8px" fill="#000000" x="126.68720138997483" y="3" transform="rotate(180 126.68720138997483 0)" font-family="Helvetica Neue, Helvetica, Arial, sans-serif">HAS_VERSION</text></g><g class="relationship" transform="translate(173.39367952283763 -331.78791076040625) rotate(515.4057966564527)"><path class="b-outline" fill="#A5ABB6" stroke="none" d="M 25 0.5 L 113.37202022374325 0.5 L 113.37202022374325 -0.5 L 25 -0.5 Z M 176.27827022374325 0.5 L 264.6502904474865 0.5 L 264.6502904474865 3.5 L 271.6502904474865 0 L 264.6502904474865 -3.5 L 264.6502904474865 -0.5 L 176.27827022374325 -0.5 Z"/><text text-anchor="middle" pointer-events="none" font-size="8px" fill="#000000" x="144.82514522374325" y="3" transform="rotate(180 144.82514522374325 0)" font-family="Helvetica Neue, Helvetica, Arial, sans-serif">HAS_VERSION</text></g><g class="relationship" transform="translate(173.39367952283763 -331.78791076040625) rotate(331.33310851412443)"><path class="b-outline" fill="#A5ABB6" stroke="none" d="M 25 0.5 L 42.446579669437966 0.5 L 42.446579669437966 -0.5 L 25 -0.5 Z M 118.52861091943797 0.5 L 135.97519058887593 0.5 L 135.97519058887593 3.5 L 142.97519058887593 0 L 135.97519058887593 -3.5 L 135.97519058887593 -0.5 L 118.52861091943797 -0.5 Z"/><text text-anchor="middle" pointer-events="none" font-size="8px" fill="#000000" x="80.48759529443797" y="3" font-family="Helvetica Neue, Helvetica, Arial, sans-serif">IS_TAGGED_WITH</text></g><g class="relationship" transform="translate(173.39367952283763 -331.78791076040625) rotate(455.1391013816741)"><path class="b-outline" fill="#A5ABB6" stroke="none" d="M 25 0.5 L 103.98442060933706 0.5 L 103.98442060933706 -0.5 L 25 -0.5 Z M 180.06645185933706 0.5 L 259.05087246867413 0.5 L 259.05087246867413 3.5 L 266.05087246867413 0 L 259.05087246867413 -3.5 L 259.05087246867413 -0.5 L 180.06645185933706 -0.5 Z"/><text text-anchor="middle" pointer-events="none" font-size="8px" fill="#000000" x="142.02543623433706" y="3" transform="rotate(180 142.02543623433706 0)" font-family="Helvetica Neue, Helvetica, Arial, sans-serif">IS_TAGGED_WITH</text></g><g class="relationship" transform="translate(173.39367952283763 -331.78791076040625) rotate(296.4837030958866)"><path class="b-outline" fill="#A5ABB6" stroke="none" d="M 25 0.5 L 39.99424001309933 0.5 L 39.99424001309933 -0.5 L 25 -0.5 Z M 116.07627126309933 0.5 L 131.07051127619866 0.5 L 131.07051127619866 3.5 L 138.07051127619866 0 L 131.07051127619866 -3.5 L 131.07051127619866 -0.5 L 116.07627126309933 -0.5 Z"/><text text-anchor="middle" pointer-events="none" font-size="8px" fill="#000000" x="78.03525563809933" y="3" font-family="Helvetica Neue, Helvetica, Arial, sans-serif">IS_TAGGED_WITH</text></g><g class="relationship" transform="translate(173.39367952283763 -331.78791076040625) rotate(260.53312967111447)"><path class="b-outline" fill="#A5ABB6" stroke="none" d="M 25 0.5 L 38.0203230908803 0.5 L 38.0203230908803 -0.5 L 25 -0.5 Z M 114.1023543408803 0.5 L 127.1226774317606 0.5 L 127.1226774317606 3.5 L 134.1226774317606 0 L 127.1226774317606 -3.5 L 127.1226774317606 -0.5 L 114.1023543408803 -0.5 Z"/><text text-anchor="middle" pointer-events="none" font-size="8px" fill="#000000" x="76.0613387158803" y="3" transform="rotate(180 76.0613387158803 0)" font-family="Helvetica Neue, Helvetica, Arial, sans-serif">IS_TAGGED_WITH</text></g><g class="relationship" transform="translate(65.10194458222053 -97.19459974050255) rotate(294.77874434724947)"><path class="b-outline" fill="#A5ABB6" stroke="none" d="M 25 0.5 L 102.31977418551833 0.5 L 102.31977418551833 -0.5 L 25 -0.5 Z M 149.06196168551833 0.5 L 226.38173587103665 0.5 L 226.38173587103665 3.5 L 233.38173587103665 0 L 226.38173587103665 -3.5 L 226.38173587103665 -0.5 L 149.06196168551833 -0.5 Z"/><text text-anchor="middle" pointer-events="none" font-size="8px" fill="#000000" x="125.69086793551833" y="3" font-family="Helvetica Neue, Helvetica, Arial, sans-serif">CONTAINS</text></g><g class="relationship" transform="translate(8.799559675270546 44.12393232065105) rotate(291.7227157468164)"><path class="b-outline" fill="#A5ABB6" stroke="none" d="M 25 0.5 L 49.18954990052673 0.5 L 49.18954990052673 -0.5 L 25 -0.5 Z M 95.93173740052673 0.5 L 120.12128730105346 0.5 L 120.12128730105346 3.5 L 127.12128730105346 0 L 120.12128730105346 -3.5 L 120.12128730105346 -0.5 L 95.93173740052673 -0.5 Z"/><text text-anchor="middle" pointer-events="none" font-size="8px" fill="#000000" x="72.56064365052673" y="3" font-family="Helvetica Neue, Helvetica, Arial, sans-serif">CONTAINS</text></g><g class="relationship" transform="translate(-50.97685453939855 -35.357476686768166) rotate(531.2133977316953)"><path class="b-outline" fill="#A5ABB6" stroke="none" d="M 25 0.5 L 159.11327235106043 0.5 L 159.11327235106043 -0.5 L 25 -0.5 Z M 189.99999110106043 0.5 L 324.11326345212086 0.5 L 324.11326345212086 3.5 L 331.11326345212086 0 L 324.11326345212086 -3.5 L 324.11326345212086 -0.5 L 189.99999110106043 -0.5 Z"/><text text-anchor="middle" pointer-events="none" font-size="8px" fill="#000000" x="174.55663172606043" y="3" transform="rotate(180 174.55663172606043 0)" font-family="Helvetica Neue, Helvetica, Arial, sans-serif">OWNS</text></g><g class="relationship" transform="translate(-402.9108182429003 19.040515909117232) rotate(516.7864183528337)"><path class="b-outline" fill="#A5ABB6" stroke="none" d="M 25 0.5 L 42.07530703130419 0.5 L 42.07530703130419 -0.5 L 25 -0.5 Z M 118.15733828130419 0.5 L 135.23264531260838 0.5 L 135.23264531260838 3.5 L 142.23264531260838 0 L 135.23264531260838 -3.5 L 135.23264531260838 -0.5 L 118.15733828130419 -0.5 Z"/><text text-anchor="middle" pointer-events="none" font-size="8px" fill="#000000" x="80.11632265630419" y="3" transform="rotate(180 80.11632265630419 0)" font-family="Helvetica Neue, Helvetica, Arial, sans-serif">IS_TAGGED_WITH</text></g><g class="relationship" transform="translate(-402.9108182429003 19.040515909117232) rotate(327.2025214564549)"><path class="b-outline" fill="#A5ABB6" stroke="none" d="M 25 0.5 L 95.77111495924734 0.5 L 95.77111495924734 -0.5 L 25 -0.5 Z M 158.67736495924734 0.5 L 229.44847991849468 0.5 L 229.44847991849468 3.5 L 236.44847991849468 0 L 229.44847991849468 -3.5 L 229.44847991849468 -0.5 L 158.67736495924734 -0.5 Z"/><text text-anchor="middle" pointer-events="none" font-size="8px" fill="#000000" x="127.22423995924734" y="3" font-family="Helvetica Neue, Helvetica, Arial, sans-serif">HAS_VERSION</text></g><g class="relationship" transform="translate(-110.39597299727681 57.35653627520234) rotate(187.46258905672443)"><path class="b-outline" fill="#A5ABB6" stroke="none" d="M 25 0.5 L 120.6357299106067 0.5 L 120.6357299106067 -0.5 L 25 -0.5 Z M 167.3779174106067 0.5 L 263.0136473212134 0.5 L 263.0136473212134 3.5 L 270.0136473212134 0 L 263.0136473212134 -3.5 L 263.0136473212134 -0.5 L 167.3779174106067 -0.5 Z"/><text text-anchor="middle" pointer-events="none" font-size="8px" fill="#000000" x="144.0068236606067" y="3" transform="rotate(180 144.0068236606067 0)" font-family="Helvetica Neue, Helvetica, Arial, sans-serif">CONTAINS</text></g><g class="relationship" transform="translate(8.799559675270546 44.12393232065105) rotate(533.6651947852196)"><path class="b-outline" fill="#A5ABB6" stroke="none" d="M 25 0.5 L 33.09280542381605 0.5 L 33.09280542381605 -0.5 L 25 -0.5 Z M 79.83499292381606 0.5 L 87.9277983476321 0.5 L 87.9277983476321 3.5 L 94.9277983476321 0 L 87.9277983476321 -3.5 L 87.9277983476321 -0.5 L 79.83499292381606 -0.5 Z"/><text text-anchor="middle" pointer-events="none" font-size="8px" fill="#000000" x="56.46389917381605" y="3" transform="rotate(180 56.46389917381605 0)" font-family="Helvetica Neue, Helvetica, Arial, sans-serif">CONTAINS</text></g><g class="relationship" transform="translate(-402.9108182429003 19.040515909117232) rotate(308.76672844847656)"><path class="b-outline" fill="#A5ABB6" stroke="none" d="M 25 0.5 L 111.90601215224231 0.5 L 111.90601215224231 -0.5 L 25 -0.5 Z M 174.8122621522423 0.5 L 261.7182743044846 0.5 L 261.7182743044846 3.5 L 268.7182743044846 0 L 261.7182743044846 -3.5 L 261.7182743044846 -0.5 L 174.8122621522423 -0.5 Z"/><text text-anchor="middle" pointer-events="none" font-size="8px" fill="#000000" x="143.3591371522423" y="3" font-family="Helvetica Neue, Helvetica, Arial, sans-serif">HAS_VERSION</text></g><g class="relationship" transform="translate(-402.9108182429003 19.040515909117232) rotate(289.73653493172753)"><path class="b-outline" fill="#A5ABB6" stroke="none" d="M 25 0.5 L 93.88701205848167 0.5 L 93.88701205848167 -0.5 L 25 -0.5 Z M 156.79326205848167 0.5 L 225.68027411696335 0.5 L 225.68027411696335 3.5 L 232.68027411696335 0 L 225.68027411696335 -3.5 L 225.68027411696335 -0.5 L 156.79326205848167 -0.5 Z"/><text text-anchor="middle" pointer-events="none" font-size="8px" fill="#000000" x="125.34013705848167" y="3" font-family="Helvetica Neue, Helvetica, Arial, sans-serif">HAS_VERSION</text></g><g class="relationship" transform="translate(-402.9108182429003 19.040515909117232) rotate(348.2545087019794)"><path class="b-outline" fill="#A5ABB6" stroke="none" d="M 25 0.5 L 94.33942113129487 0.5 L 94.33942113129487 -0.5 L 25 -0.5 Z M 157.24567113129487 0.5 L 226.58509226258974 0.5 L 226.58509226258974 3.5 L 233.58509226258974 0 L 226.58509226258974 -3.5 L 226.58509226258974 -0.5 L 157.24567113129487 -0.5 Z"/><text text-anchor="middle" pointer-events="none" font-size="8px" fill="#000000" x="125.79254613129487" y="3" font-family="Helvetica Neue, Helvetica, Arial, sans-serif">HAS_VERSION</text></g><g class="relationship" transform="translate(-402.9108182429003 19.040515909117232) rotate(278.64147787015276)"><path class="b-outline" fill="#A5ABB6" stroke="none" d="M 25 0.5 L 49.6582827479516 0.5 L 49.6582827479516 -0.5 L 25 -0.5 Z M 112.5645327479516 0.5 L 137.2228154959032 0.5 L 137.2228154959032 3.5 L 144.2228154959032 0 L 137.2228154959032 -3.5 L 137.2228154959032 -0.5 L 112.5645327479516 -0.5 Z"/><text text-anchor="middle" pointer-events="none" font-size="8px" fill="#000000" x="81.1114077479516" y="3" font-family="Helvetica Neue, Helvetica, Arial, sans-serif">HAS_VERSION</text></g><g class="relationship" transform="translate(-402.9108182429003 19.040515909117232) rotate(307.53989285009135)"><path class="b-outline" fill="#A5ABB6" stroke="none" d="M 25 0.5 L 25.69422525007154 0.5 L 25.69422525007154 -0.5 L 25 -0.5 Z M 65.92860025007154 0.5 L 66.62282550014308 0.5 L 66.62282550014308 3.5 L 73.62282550014308 0 L 66.62282550014308 -3.5 L 66.62282550014308 -0.5 L 65.92860025007154 -0.5 Z"/><text text-anchor="middle" pointer-events="none" font-size="8px" fill="#000000" x="45.81141275007154" y="3" font-family="Helvetica Neue, Helvetica, Arial, sans-serif">HAS_V…</text></g><g class="relationship" transform="translate(-402.9108182429003 19.040515909117232) rotate(308.55404681027215)"><path class="b-outline" fill="#A5ABB6" stroke="none" d="M 25 0.5 L 63.574217540476425 0.5 L 63.574217540476425 -0.5 L 25 -0.5 Z M 126.48046754047643 0.5 L 165.05468508095285 0.5 L 165.05468508095285 3.5 L 172.05468508095285 0 L 165.05468508095285 -3.5 L 165.05468508095285 -0.5 L 126.48046754047643 -0.5 Z"/><text text-anchor="middle" pointer-events="none" font-size="8px" fill="#000000" x="95.02734254047643" y="3" font-family="Helvetica Neue, Helvetica, Arial, sans-serif">HAS_VERSION</text></g><g class="relationship" transform="translate(-402.9108182429003 19.040515909117232) rotate(337.51069722628654)"><path class="b-outline" fill="#A5ABB6" stroke="none" d="M 25 0.5 L 51.386584039103695 0.5 L 51.386584039103695 -0.5 L 25 -0.5 Z M 114.2928340391037 0.5 L 140.6794180782074 0.5 L 140.6794180782074 3.5 L 147.6794180782074 0 L 140.6794180782074 -3.5 L 140.6794180782074 -0.5 L 114.2928340391037 -0.5 Z"/><text text-anchor="middle" pointer-events="none" font-size="8px" fill="#000000" x="82.8397090391037" y="3" font-family="Helvetica Neue, Helvetica, Arial, sans-serif">HAS_VERSION</text></g><g class="relationship" transform="translate(-402.9108182429003 19.040515909117232) rotate(425.4429303367326)"><path class="b-outline" fill="#A5ABB6" stroke="none" d="M 25 0.5 L 25.9521477906655 0.5 L 25.9521477906655 -0.5 L 25 -0.5 Z M 66.18652279066549 0.5 L 67.138670581331 0.5 L 67.138670581331 3.5 L 74.138670581331 0 L 67.138670581331 -3.5 L 67.138670581331 -0.5 L 66.18652279066549 -0.5 Z"/><text text-anchor="middle" pointer-events="none" font-size="8px" fill="#000000" x="46.0693352906655" y="3" font-family="Helvetica Neue, Helvetica, Arial, sans-serif">HAS_V…</text></g><g class="relationship" transform="translate(-402.9108182429003 19.040515909117232) rotate(366.2059034948094)"><path class="b-outline" fill="#A5ABB6" stroke="none" d="M 25 0.5 L 26.68795240058781 0.5 L 26.68795240058781 -0.5 L 25 -0.5 Z M 66.92232740058782 0.5 L 68.61027980117562 0.5 L 68.61027980117562 3.5 L 75.61027980117562 0 L 68.61027980117562 -3.5 L 68.61027980117562 -0.5 L 66.92232740058782 -0.5 Z"/><text text-anchor="middle" pointer-events="none" font-size="8px" fill="#000000" x="46.80513990058781" y="3" font-family="Helvetica Neue, Helvetica, Arial, sans-serif">HAS_V…</text></g><g class="relationship" transform="translate(-402.9108182429003 19.040515909117232) rotate(367.1506513842737)"><path class="b-outline" fill="#A5ABB6" stroke="none" d="M 25 0.5 L 64.46553215546689 0.5 L 64.46553215546689 -0.5 L 25 -0.5 Z M 127.37178215546689 0.5 L 166.83731431093378 0.5 L 166.83731431093378 3.5 L 173.83731431093378 0 L 166.83731431093378 -3.5 L 166.83731431093378 -0.5 L 127.37178215546689 -0.5 Z"/><text text-anchor="middle" pointer-events="none" font-size="8px" fill="#000000" x="95.91865715546689" y="3" font-family="Helvetica Neue, Helvetica, Arial, sans-serif">HAS_VERSION</text></g><g class="relationship" transform="translate(-402.9108182429003 19.040515909117232) rotate(426.25084160700095)"><path class="b-outline" fill="#A5ABB6" stroke="none" d="M 25 0.5 L 63.115543864168444 0.5 L 63.115543864168444 -0.5 L 25 -0.5 Z M 126.02179386416844 0.5 L 164.1373377283369 0.5 L 164.1373377283369 3.5 L 171.1373377283369 0 L 164.1373377283369 -3.5 L 164.1373377283369 -0.5 L 126.02179386416844 -0.5 Z"/><text text-anchor="middle" pointer-events="none" font-size="8px" fill="#000000" x="94.56866886416844" y="3" font-family="Helvetica Neue, Helvetica, Arial, sans-serif">HAS_VERSION</text></g><g class="relationship" transform="translate(-402.9108182429003 19.040515909117232) rotate(396.1448537159273)"><path class="b-outline" fill="#A5ABB6" stroke="none" d="M 25 0.5 L 50.775785598394734 0.5 L 50.775785598394734 -0.5 L 25 -0.5 Z M 113.68203559839473 0.5 L 139.45782119678947 0.5 L 139.45782119678947 3.5 L 146.45782119678947 0 L 139.45782119678947 -3.5 L 139.45782119678947 -0.5 L 113.68203559839473 -0.5 Z"/><text text-anchor="middle" pointer-events="none" font-size="8px" fill="#000000" x="82.22891059839473" y="3" font-family="Helvetica Neue, Helvetica, Arial, sans-serif">HAS_VERSION</text></g><g class="relationship" transform="translate(-402.9108182429003 19.040515909117232) rotate(386.14018497532277)"><path class="b-outline" fill="#A5ABB6" stroke="none" d="M 25 0.5 L 96.67027996255587 0.5 L 96.67027996255587 -0.5 L 25 -0.5 Z M 159.57652996255587 0.5 L 231.24680992511173 0.5 L 231.24680992511173 3.5 L 238.24680992511173 0 L 231.24680992511173 -3.5 L 231.24680992511173 -0.5 L 159.57652996255587 -0.5 Z"/><text text-anchor="middle" pointer-events="none" font-size="8px" fill="#000000" x="128.12340496255587" y="3" font-family="Helvetica Neue, Helvetica, Arial, sans-serif">HAS_VERSION</text></g><g class="relationship" transform="translate(-402.9108182429003 19.040515909117232) rotate(407.5395139457519)"><path class="b-outline" fill="#A5ABB6" stroke="none" d="M 25 0.5 L 95.55888916529915 0.5 L 95.55888916529915 -0.5 L 25 -0.5 Z M 158.46513916529915 0.5 L 229.0240283305983 0.5 L 229.0240283305983 3.5 L 236.0240283305983 0 L 229.0240283305983 -3.5 L 229.0240283305983 -0.5 L 158.46513916529915 -0.5 Z"/><text text-anchor="middle" pointer-events="none" font-size="8px" fill="#000000" x="127.01201416529915" y="3" font-family="Helvetica Neue, Helvetica, Arial, sans-serif">HAS_VERSION</text></g><g class="relationship" transform="translate(-402.9108182429003 19.040515909117232) rotate(191.59496569870873)"><path class="b-outline" fill="#A5ABB6" stroke="none" d="M 25 0.5 L 40.9950133433683 0.5 L 40.9950133433683 -0.5 L 25 -0.5 Z M 117.0770445933683 0.5 L 133.0720579367366 0.5 L 133.0720579367366 3.5 L 140.0720579367366 0 L 133.0720579367366 -3.5 L 133.0720579367366 -0.5 L 117.0770445933683 -0.5 Z"/><text text-anchor="middle" pointer-events="none" font-size="8px" fill="#000000" x="79.0360289683683" y="3" transform="rotate(180 79.0360289683683 0)" font-family="Helvetica Neue, Helvetica, Arial, sans-serif">IS_TAGGED_WITH</text></g><g class="relationship" transform="translate(-50.97685453939855 -35.357476686768166) rotate(446.5853329158965)"><path class="b-outline" fill="#A5ABB6" stroke="none" d="M 25 0.5 L 56.37019879278469 0.5 L 56.37019879278469 -0.5 L 25 -0.5 Z M 107.71785504278469 0.5 L 139.08805383556938 0.5 L 139.08805383556938 3.5 L 146.08805383556938 0 L 139.08805383556938 -3.5 L 139.08805383556938 -0.5 L 107.71785504278469 -0.5 Z"/><text text-anchor="middle" pointer-events="none" font-size="8px" fill="#000000" x="82.04402691778469" y="3" font-family="Helvetica Neue, Helvetica, Arial, sans-serif">PUBLISHED</text></g><g class="relationship" transform="translate(-50.97685453939855 -35.357476686768166) rotate(457.1135275569822)"><path class="b-outline" fill="#A5ABB6" stroke="none" d="M 25 0.5 L 101.44810687799495 0.5 L 101.44810687799495 -0.5 L 25 -0.5 Z M 152.79576312799495 0.5 L 229.2438700059899 0.5 L 229.2438700059899 3.5 L 236.2438700059899 0 L 229.2438700059899 -3.5 L 229.2438700059899 -0.5 L 152.79576312799495 -0.5 Z"/><text text-anchor="middle" pointer-events="none" font-size="8px" fill="#000000" x="127.12193500299495" y="3" transform="rotate(180 127.12193500299495 0)" font-family="Helvetica Neue, Helvetica, Arial, sans-serif">PUBLISHED</text></g><g class="relationship" transform="translate(-50.97685453939855 -35.357476686768166) rotate(416.4766645136468)"><path class="b-outline" fill="#A5ABB6" stroke="none" d="M 25 0.5 L 69.22714520521735 0.5 L 69.22714520521735 -0.5 L 25 -0.5 Z M 120.57480145521735 0.5 L 164.8019466604347 0.5 L 164.8019466604347 3.5 L 171.8019466604347 0 L 164.8019466604347 -3.5 L 164.8019466604347 -0.5 L 120.57480145521735 -0.5 Z"/><text text-anchor="middle" pointer-events="none" font-size="8px" fill="#000000" x="94.90097333021735" y="3" font-family="Helvetica Neue, Helvetica, Arial, sans-serif">PUBLISHED</text></g><g class="relationship" transform="translate(-50.97685453939855 -35.357476686768166) rotate(435.43052082242286)"><path class="b-outline" fill="#A5ABB6" stroke="none" d="M 25 0.5 L 100.96759886762393 0.5 L 100.96759886762393 -0.5 L 25 -0.5 Z M 152.31525511762393 0.5 L 228.28285398524787 0.5 L 228.28285398524787 3.5 L 235.28285398524787 0 L 228.28285398524787 -3.5 L 228.28285398524787 -0.5 L 152.31525511762393 -0.5 Z"/><text text-anchor="middle" pointer-events="none" font-size="8px" fill="#000000" x="126.64142699262393" y="3" font-family="Helvetica Neue, Helvetica, Arial, sans-serif">PUBLISHED</text></g><g class="relationship" transform="translate(-50.97685453939855 -35.357476686768166) rotate(416.74656883140426)"><path class="b-outline" fill="#A5ABB6" stroke="none" d="M 25 0.5 L 118.26171943076687 0.5 L 118.26171943076687 -0.5 L 25 -0.5 Z M 169.60937568076687 0.5 L 262.87109511153375 0.5 L 262.87109511153375 3.5 L 269.87109511153375 0 L 262.87109511153375 -3.5 L 262.87109511153375 -0.5 L 169.60937568076687 -0.5 Z"/><text text-anchor="middle" pointer-events="none" font-size="8px" fill="#000000" x="143.93554755576687" y="3" font-family="Helvetica Neue, Helvetica, Arial, sans-serif">PUBLISHED</text></g><g class="relationship" transform="translate(-50.97685453939855 -35.357476686768166) rotate(397.85927368301117)"><path class="b-outline" fill="#A5ABB6" stroke="none" d="M 25 0.5 L 102.96083849942173 0.5 L 102.96083849942173 -0.5 L 25 -0.5 Z M 154.30849474942173 0.5 L 232.26933324884345 0.5 L 232.26933324884345 3.5 L 239.26933324884345 0 L 232.26933324884345 -3.5 L 232.26933324884345 -0.5 L 154.30849474942173 -0.5 Z"/><text text-anchor="middle" pointer-events="none" font-size="8px" fill="#000000" x="128.63466662442173" y="3" font-family="Helvetica Neue, Helvetica, Arial, sans-serif">PUBLISHED</text></g><g class="relationship" transform="translate(-50.97685453939855 -35.357476686768166) rotate(375.97650464492676)"><path class="b-outline" fill="#A5ABB6" stroke="none" d="M 25 0.5 L 103.156894010961 0.5 L 103.156894010961 -0.5 L 25 -0.5 Z M 154.504550260961 0.5 L 232.661444271922 0.5 L 232.661444271922 3.5 L 239.661444271922 0 L 232.661444271922 -3.5 L 232.661444271922 -0.5 L 154.504550260961 -0.5 Z"/><text text-anchor="middle" pointer-events="none" font-size="8px" fill="#000000" x="128.830722135961" y="3" font-family="Helvetica Neue, Helvetica, Arial, sans-serif">PUBLISHED</text></g><g class="relationship" transform="translate(-50.97685453939855 -35.357476686768166) rotate(386.68283278700335)"><path class="b-outline" fill="#A5ABB6" stroke="none" d="M 25 0.5 L 58.67670934639422 0.5 L 58.67670934639422 -0.5 L 25 -0.5 Z M 110.02436559639422 0.5 L 143.70107494278844 0.5 L 143.70107494278844 3.5 L 150.70107494278844 0 L 143.70107494278844 -3.5 L 143.70107494278844 -0.5 L 110.02436559639422 -0.5 Z"/><text text-anchor="middle" pointer-events="none" font-size="8px" fill="#000000" x="84.35053747139422" y="3" font-family="Helvetica Neue, Helvetica, Arial, sans-serif">PUBLISHED</text></g><g class="relationship" transform="translate(-50.97685453939855 -35.357476686768166) rotate(333.2286700451741)"><path class="b-outline" fill="#A5ABB6" stroke="none" d="M 25 0.5 L 84.28953040164322 0.5 L 84.28953040164322 -0.5 L 25 -0.5 Z M 135.63718665164322 0.5 L 194.92671705328644 0.5 L 194.92671705328644 3.5 L 201.92671705328644 0 L 194.92671705328644 -3.5 L 194.92671705328644 -0.5 L 135.63718665164322 -0.5 Z"/><text text-anchor="middle" pointer-events="none" font-size="8px" fill="#000000" x="109.96335852664322" y="3" font-family="Helvetica Neue, Helvetica, Arial, sans-serif">PUBLISHED</text></g><g class="relationship" transform="translate(-50.97685453939855 -35.357476686768166) rotate(332.7565862673305)"><path class="b-outline" fill="#A5ABB6" stroke="none" d="M 25 0.5 L 133.68557478806312 0.5 L 133.68557478806312 -0.5 L 25 -0.5 Z M 185.03323103806312 0.5 L 293.71880582612624 0.5 L 293.71880582612624 3.5 L 300.71880582612624 0 L 293.71880582612624 -3.5 L 293.71880582612624 -0.5 L 185.03323103806312 -0.5 Z"/><text text-anchor="middle" pointer-events="none" font-size="8px" fill="#000000" x="159.35940291306312" y="3" font-family="Helvetica Neue, Helvetica, Arial, sans-serif">PUBLISHED</text></g><g class="relationship" transform="translate(-50.97685453939855 -35.357476686768166) rotate(307.91023102650354)"><path class="b-outline" fill="#A5ABB6" stroke="none" d="M 25 0.5 L 70.96274425150388 0.5 L 70.96274425150388 -0.5 L 25 -0.5 Z M 122.31040050150388 0.5 L 168.27314475300776 0.5 L 168.27314475300776 3.5 L 175.27314475300776 0 L 168.27314475300776 -3.5 L 168.27314475300776 -0.5 L 122.31040050150388 -0.5 Z"/><text text-anchor="middle" pointer-events="none" font-size="8px" fill="#000000" x="96.63657237650388" y="3" font-family="Helvetica Neue, Helvetica, Arial, sans-serif">PUBLISHED</text></g><g class="relationship" transform="translate(-50.97685453939855 -35.357476686768166) rotate(349.4802212220752)"><path class="b-outline" fill="#A5ABB6" stroke="none" d="M 25 0.5 L 115.22968670468907 0.5 L 115.22968670468907 -0.5 L 25 -0.5 Z M 166.57734295468907 0.5 L 256.80702965937814 0.5 L 256.80702965937814 3.5 L 263.80702965937814 0 L 256.80702965937814 -3.5 L 256.80702965937814 -0.5 L 166.57734295468907 -0.5 Z"/><text text-anchor="middle" pointer-events="none" font-size="8px" fill="#000000" x="140.90351482968907" y="3" font-family="Helvetica Neue, Helvetica, Arial, sans-serif">PUBLISHED</text></g><g class="relationship" transform="translate(-50.97685453939855 -35.357476686768166) rotate(278.9952909883268)"><path class="b-outline" fill="#A5ABB6" stroke="none" d="M 25 0.5 L 129.68907469126344 0.5 L 129.68907469126344 -0.5 L 25 -0.5 Z M 181.03673094126344 0.5 L 285.7258056325269 0.5 L 285.7258056325269 3.5 L 292.7258056325269 0 L 285.7258056325269 -3.5 L 285.7258056325269 -0.5 L 181.03673094126344 -0.5 Z"/><text text-anchor="middle" pointer-events="none" font-size="8px" fill="#000000" x="155.36290281626344" y="3" font-family="Helvetica Neue, Helvetica, Arial, sans-serif">PUBLISHED</text></g><g class="relationship" transform="translate(-50.97685453939855 -35.357476686768166) rotate(316.3130198983524)"><path class="b-outline" fill="#A5ABB6" stroke="none" d="M 25 0.5 L 115.39766463611068 0.5 L 115.39766463611068 -0.5 L 25 -0.5 Z M 166.74532088611068 0.5 L 257.14298552222135 0.5 L 257.14298552222135 3.5 L 264.14298552222135 0 L 257.14298552222135 -3.5 L 257.14298552222135 -0.5 L 166.74532088611068 -0.5 Z"/><text text-anchor="middle" pointer-events="none" font-size="8px" fill="#000000" x="141.07149276111068" y="3" font-family="Helvetica Neue, Helvetica, Arial, sans-serif">PUBLISHED</text></g><g class="relationship" transform="translate(-50.97685453939855 -35.357476686768166) rotate(296.569511753436)"><path class="b-outline" fill="#A5ABB6" stroke="none" d="M 25 0.5 L 114.26754439104457 0.5 L 114.26754439104457 -0.5 L 25 -0.5 Z M 165.61520064104457 0.5 L 254.88274503208913 0.5 L 254.88274503208913 3.5 L 261.88274503208913 0 L 254.88274503208913 -3.5 L 254.88274503208913 -0.5 L 165.61520064104457 -0.5 Z"/><text text-anchor="middle" pointer-events="none" font-size="8px" fill="#000000" x="139.94137251604457" y="3" font-family="Helvetica Neue, Helvetica, Arial, sans-serif">PUBLISHED</text></g><g class="relationship" transform="translate(-50.97685453939855 -35.357476686768166) rotate(262.091374130553)"><path class="b-outline" fill="#A5ABB6" stroke="none" d="M 25 0.5 L 107.57813916918386 0.5 L 107.57813916918386 -0.5 L 25 -0.5 Z M 158.92579541918386 0.5 L 241.5039345883677 0.5 L 241.5039345883677 3.5 L 248.5039345883677 0 L 241.5039345883677 -3.5 L 241.5039345883677 -0.5 L 158.92579541918386 -0.5 Z"/><text text-anchor="middle" pointer-events="none" font-size="8px" fill="#000000" x="133.25196729418386" y="3" transform="rotate(180 133.25196729418386 0)" font-family="Helvetica Neue, Helvetica, Arial, sans-serif">PUBLISHED</text></g><g class="relationship" transform="translate(-50.97685453939855 -35.357476686768166) rotate(281.4544711516817)"><path class="b-outline" fill="#A5ABB6" stroke="none" d="M 25 0.5 L 80.6671793103572 0.5 L 80.6671793103572 -0.5 L 25 -0.5 Z M 132.0148355603572 0.5 L 187.6820148707144 0.5 L 187.6820148707144 3.5 L 194.6820148707144 0 L 187.6820148707144 -3.5 L 187.6820148707144 -0.5 L 132.0148355603572 -0.5 Z"/><text text-anchor="middle" pointer-events="none" font-size="8px" fill="#000000" x="106.3410074353572" y="3" font-family="Helvetica Neue, Helvetica, Arial, sans-serif">PUBLISHED</text></g><g class="relationship" transform="translate(-50.97685453939855 -35.357476686768166) rotate(286.606895861681)"><path class="b-outline" fill="#A5ABB6" stroke="none" d="M 25 0.5 L 32.206501954142844 0.5 L 32.206501954142844 -0.5 L 25 -0.5 Z M 83.55415820414285 0.5 L 90.76066015828569 0.5 L 90.76066015828569 3.5 L 97.76066015828569 0 L 90.76066015828569 -3.5 L 90.76066015828569 -0.5 L 83.55415820414285 -0.5 Z"/><text text-anchor="middle" pointer-events="none" font-size="8px" fill="#000000" x="57.880330079142844" y="3" font-family="Helvetica Neue, Helvetica, Arial, sans-serif">PUBLISHED</text></g><g class="relationship" transform="translate(-50.97685453939855 -35.357476686768166) rotate(255.30315084844779)"><path class="b-outline" fill="#A5ABB6" stroke="none" d="M 25 0.5 L 60.23544322233005 0.5 L 60.23544322233005 -0.5 L 25 -0.5 Z M 111.58309947233005 0.5 L 146.8185426946601 0.5 L 146.8185426946601 3.5 L 153.8185426946601 0 L 146.8185426946601 -3.5 L 146.8185426946601 -0.5 L 111.58309947233005 -0.5 Z"/><text text-anchor="middle" pointer-events="none" font-size="8px" fill="#000000" x="85.90927134733005" y="3" transform="rotate(180 85.90927134733005 0)" font-family="Helvetica Neue, Helvetica, Arial, sans-serif">PUBLISHED</text></g><g class="relationship" transform="translate(-50.97685453939855 -35.357476686768166) rotate(213.42288739653503)"><path class="b-outline" fill="#A5ABB6" stroke="none" d="M 25 0.5 L 50.000897631438846 0.5 L 50.000897631438846 -0.5 L 25 -0.5 Z M 101.34855388143885 0.5 L 126.34945151287769 0.5 L 126.34945151287769 3.5 L 133.3494515128777 0 L 126.34945151287769 -3.5 L 126.34945151287769 -0.5 L 101.34855388143885 -0.5 Z"/><text text-anchor="middle" pointer-events="none" font-size="8px" fill="#000000" x="75.67472575643885" y="3" transform="rotate(180 75.67472575643885 0)" font-family="Helvetica Neue, Helvetica, Arial, sans-serif">PUBLISHED</text></g><g class="relationship" transform="translate(-50.97685453939855 -35.357476686768166) rotate(226.10229967533536)"><path class="b-outline" fill="#A5ABB6" stroke="none" d="M 25 0.5 L 91.98891709287973 0.5 L 91.98891709287973 -0.5 L 25 -0.5 Z M 143.33657334287972 0.5 L 210.32549043575946 0.5 L 210.32549043575946 3.5 L 217.32549043575946 0 L 210.32549043575946 -3.5 L 210.32549043575946 -0.5 L 143.33657334287972 -0.5 Z"/><text text-anchor="middle" pointer-events="none" font-size="8px" fill="#000000" x="117.66274521787973" y="3" transform="rotate(180 117.66274521787973 0)" font-family="Helvetica Neue, Helvetica, Arial, sans-serif">PUBLISHED</text></g><g class="relationship" transform="translate(-50.97685453939855 -35.357476686768166) rotate(215.3825519398937)"><path class="b-outline" fill="#A5ABB6" stroke="none" d="M 25 0.5 L 133.29099199031373 0.5 L 133.29099199031373 -0.5 L 25 -0.5 Z M 184.63864824031373 0.5 L 292.92964023062746 0.5 L 292.92964023062746 3.5 L 299.92964023062746 0 L 292.92964023062746 -3.5 L 292.92964023062746 -0.5 L 184.63864824031373 -0.5 Z"/><text text-anchor="middle" pointer-events="none" font-size="8px" fill="#000000" x="158.96482011531373" y="3" transform="rotate(180 158.96482011531373 0)" font-family="Helvetica Neue, Helvetica, Arial, sans-serif">PUBLISHED</text></g><g class="relationship" transform="translate(-50.97685453939855 -35.357476686768166) rotate(538.9795423037906)"><path class="b-outline" fill="#A5ABB6" stroke="none" d="M 25 0.5 L 27.32891472101924 0.5 L 27.32891472101924 -0.5 L 25 -0.5 Z M 64.45000847101923 0.5 L 66.77892319203848 0.5 L 66.77892319203848 3.5 L 73.77892319203848 0 L 66.77892319203848 -3.5 L 66.77892319203848 -0.5 L 64.45000847101923 -0.5 Z"/><text text-anchor="middle" pointer-events="none" font-size="8px" fill="#000000" x="45.88946159601924" y="3" transform="rotate(180 45.88946159601924 0)" font-family="Helvetica Neue, Helvetica, Arial, sans-serif">PUBLI…</text></g><g class="relationship" transform="translate(-50.97685453939855 -35.357476686768166) rotate(199.07496216073838)"><path class="b-outline" fill="#A5ABB6" stroke="none" d="M 25 0.5 L 143.5649716692591 0.5 L 143.5649716692591 -0.5 L 25 -0.5 Z M 194.9126279192591 0.5 L 313.4775995885182 0.5 L 313.4775995885182 3.5 L 320.4775995885182 0 L 313.4775995885182 -3.5 L 313.4775995885182 -0.5 L 194.9126279192591 -0.5 Z"/><text text-anchor="middle" pointer-events="none" font-size="8px" fill="#000000" x="169.2387997942591" y="3" transform="rotate(180 169.2387997942591 0)" font-family="Helvetica Neue, Helvetica, Arial, sans-serif">PUBLISHED</text></g><g class="relationship" transform="translate(-50.97685453939855 -35.357476686768166) rotate(184.6627862025813)"><path class="b-outline" fill="#A5ABB6" stroke="none" d="M 25 0.5 L 117.23158013872919 0.5 L 117.23158013872919 -0.5 L 25 -0.5 Z M 168.57923638872919 0.5 L 260.81081652745837 0.5 L 260.81081652745837 3.5 L 267.81081652745837 0 L 260.81081652745837 -3.5 L 260.81081652745837 -0.5 L 168.57923638872919 -0.5 Z"/><text text-anchor="middle" pointer-events="none" font-size="8px" fill="#000000" x="142.90540826372919" y="3" transform="rotate(180 142.90540826372919 0)" font-family="Helvetica Neue, Helvetica, Arial, sans-serif">PUBLISHED</text></g><g class="relationship" transform="translate(-50.97685453939855 -35.357476686768166) rotate(203.51661231228235)"><path class="b-outline" fill="#A5ABB6" stroke="none" d="M 25 0.5 L 95.76238132508375 0.5 L 95.76238132508375 -0.5 L 25 -0.5 Z M 147.11003757508377 0.5 L 217.8724189001675 0.5 L 217.8724189001675 3.5 L 224.8724189001675 0 L 217.8724189001675 -3.5 L 217.8724189001675 -0.5 L 147.11003757508377 -0.5 Z"/><text text-anchor="middle" pointer-events="none" font-size="8px" fill="#000000" x="121.43620945008375" y="3" transform="rotate(180 121.43620945008375 0)" font-family="Helvetica Neue, Helvetica, Arial, sans-serif">PUBLISHED</text></g><g class="relationship" transform="translate(-50.97685453939855 -35.357476686768166) rotate(183.46644186434594)"><path class="b-outline" fill="#A5ABB6" stroke="none" d="M 25 0.5 L 67.1958158254428 0.5 L 67.1958158254428 -0.5 L 25 -0.5 Z M 118.5434720754428 0.5 L 160.7392879008856 0.5 L 160.7392879008856 3.5 L 167.7392879008856 0 L 160.7392879008856 -3.5 L 160.7392879008856 -0.5 L 118.5434720754428 -0.5 Z"/><text text-anchor="middle" pointer-events="none" font-size="8px" fill="#000000" x="92.8696439504428" y="3" transform="rotate(180 92.8696439504428 0)" font-family="Helvetica Neue, Helvetica, Arial, sans-serif">PUBLISHED</text></g><g class="relationship" transform="translate(-50.97685453939855 -35.357476686768166) rotate(515.0496005796026)"><path class="b-outline" fill="#A5ABB6" stroke="none" d="M 25 0.5 L 142.18447106158806 0.5 L 142.18447106158806 -0.5 L 25 -0.5 Z M 193.53212731158806 0.5 L 310.7165983731761 0.5 L 310.7165983731761 3.5 L 317.7165983731761 0 L 310.7165983731761 -3.5 L 310.7165983731761 -0.5 L 193.53212731158806 -0.5 Z"/><text text-anchor="middle" pointer-events="none" font-size="8px" fill="#000000" x="167.85829918658806" y="3" transform="rotate(180 167.85829918658806 0)" font-family="Helvetica Neue, Helvetica, Arial, sans-serif">PUBLISHED</text></g><g class="relationship" transform="translate(-50.97685453939855 -35.357476686768166) rotate(525.4733678749028)"><path class="b-outline" fill="#A5ABB6" stroke="none" d="M 25 0.5 L 100.94247854331817 0.5 L 100.94247854331817 -0.5 L 25 -0.5 Z M 152.29013479331817 0.5 L 228.23261333663635 0.5 L 228.23261333663635 3.5 L 235.23261333663635 0 L 228.23261333663635 -3.5 L 228.23261333663635 -0.5 L 152.29013479331817 -0.5 Z"/><text text-anchor="middle" pointer-events="none" font-size="8px" fill="#000000" x="126.61630666831817" y="3" transform="rotate(180 126.61630666831817 0)" font-family="Helvetica Neue, Helvetica, Arial, sans-serif">PUBLISHED</text></g><g class="relationship" transform="translate(-50.97685453939855 -35.357476686768166) rotate(512.8958596595253)"><path class="b-outline" fill="#A5ABB6" stroke="none" d="M 25 0.5 L 57.6867900310003 0.5 L 57.6867900310003 -0.5 L 25 -0.5 Z M 109.0344462810003 0.5 L 141.7212363120006 0.5 L 141.7212363120006 3.5 L 148.7212363120006 0 L 141.7212363120006 -3.5 L 141.7212363120006 -0.5 L 109.0344462810003 -0.5 Z"/><text text-anchor="middle" pointer-events="none" font-size="8px" fill="#000000" x="83.3606181560003" y="3" transform="rotate(180 83.3606181560003 0)" font-family="Helvetica Neue, Helvetica, Arial, sans-serif">PUBLISHED</text></g><g class="relationship" transform="translate(-50.97685453939855 -35.357476686768166) rotate(499.4017525045281)"><path class="b-outline" fill="#A5ABB6" stroke="none" d="M 25 0.5 L 150.56151770534643 0.5 L 150.56151770534643 -0.5 L 25 -0.5 Z M 201.90917395534643 0.5 L 327.47069166069286 0.5 L 327.47069166069286 3.5 L 334.47069166069286 0 L 327.47069166069286 -3.5 L 327.47069166069286 -0.5 L 201.90917395534643 -0.5 Z"/><text text-anchor="middle" pointer-events="none" font-size="8px" fill="#000000" x="176.23534583034643" y="3" transform="rotate(180 176.23534583034643 0)" font-family="Helvetica Neue, Helvetica, Arial, sans-serif">PUBLISHED</text></g><g class="relationship" transform="translate(-50.97685453939855 -35.357476686768166) rotate(503.92476631334193)"><path class="b-outline" fill="#A5ABB6" stroke="none" d="M 25 0.5 L 102.88825728284786 0.5 L 102.88825728284786 -0.5 L 25 -0.5 Z M 154.23591353284786 0.5 L 232.12417081569572 0.5 L 232.12417081569572 3.5 L 239.12417081569572 0 L 232.12417081569572 -3.5 L 232.12417081569572 -0.5 L 154.23591353284786 -0.5 Z"/><text text-anchor="middle" pointer-events="none" font-size="8px" fill="#000000" x="128.56208540784786" y="3" transform="rotate(180 128.56208540784786 0)" font-family="Helvetica Neue, Helvetica, Arial, sans-serif">PUBLISHED</text></g><g class="relationship" transform="translate(-50.97685453939855 -35.357476686768166) rotate(484.1596553880737)"><path class="b-outline" fill="#A5ABB6" stroke="none" d="M 25 0.5 L 73.77557350584487 0.5 L 73.77557350584487 -0.5 L 25 -0.5 Z M 125.12322975584487 0.5 L 173.89880326168975 0.5 L 173.89880326168975 3.5 L 180.89880326168975 0 L 173.89880326168975 -3.5 L 173.89880326168975 -0.5 L 125.12322975584487 -0.5 Z"/><text text-anchor="middle" pointer-events="none" font-size="8px" fill="#000000" x="99.44940163084487" y="3" transform="rotate(180 99.44940163084487 0)" font-family="Helvetica Neue, Helvetica, Arial, sans-serif">PUBLISHED</text></g><g class="relationship" transform="translate(-50.97685453939855 -35.357476686768166) rotate(485.4325699598613)"><path class="b-outline" fill="#A5ABB6" stroke="none" d="M 25 0.5 L 122.37695587367435 0.5 L 122.37695587367435 -0.5 L 25 -0.5 Z M 173.72461212367435 0.5 L 271.1015679973487 0.5 L 271.1015679973487 3.5 L 278.1015679973487 0 L 271.1015679973487 -3.5 L 271.1015679973487 -0.5 L 173.72461212367435 -0.5 Z"/><text text-anchor="middle" pointer-events="none" font-size="8px" fill="#000000" x="148.05078399867435" y="3" transform="rotate(180 148.05078399867435 0)" font-family="Helvetica Neue, Helvetica, Arial, sans-serif">PUBLISHED</text></g></g><g class="layer nodes"><g class="node" aria-label="graph-node150162" transform="translate(-50.97685453939855,-35.357476686768166)"><circle class="b-outline" cx="0" cy="0" r="25" fill="#F16667" stroke="#eb2728" stroke-width="2px"/><text class="caption" text-anchor="middle" pointer-events="none" x="0" y="5" font-size="10px" fill="#FFFFFF" font-family="Helvetica Neue, Helvetica, Arial, sans-serif"> Steffo99</text></g><g class="node" aria-label="graph-node104860" transform="translate(98.20117848456705,308.3146525162957)"><circle class="b-outline" cx="0" cy="0" r="25" fill="#C990C0" stroke="#b261a5" stroke-width="2px"/><text class="caption" text-anchor="middle" pointer-events="none" x="0" y="5" font-size="10px" fill="#FFFFFF" font-family="Helvetica Neue, Helvetica, Arial, sans-serif"> distribut…</text></g><g class="node" aria-label="graph-node128183" transform="translate(0.3903406334611267,445.3580058173134)"><circle class="b-outline" cx="0" cy="0" r="25" fill="#F79767" stroke="#f36924" stroke-width="2px"/><text class="caption" text-anchor="middle" pointer-events="none" x="0" y="5" font-size="10px" fill="#FFFFFF" font-family="Helvetica Neue, Helvetica, Arial, sans-serif"> 1174057</text></g><g class="node" aria-label="graph-node673316" transform="translate(-40.786523282514366,135.42682971788264)"><circle class="b-outline" cx="0" cy="0" r="25" fill="#D9C8AE" stroke="#c0a378" stroke-width="2px"/><text class="caption" text-anchor="middle" pointer-events="none" x="0" y="5" font-size="10px" fill="#2A2C34" font-family="Helvetica Neue, Helvetica, Arial, sans-serif"> 0.3.0</text></g><g class="node" aria-label="graph-node156327" transform="translate(290.6812018652612,-7.110642349758199)"><circle class="b-outline" cx="0" cy="0" r="25" fill="#57C7E3" stroke="#23b3d7" stroke-width="2px"/><text class="caption" text-anchor="middle" pointer-events="none" x="0" y="5" font-size="10px" fill="#2A2C34" font-family="Helvetica Neue, Helvetica, Arial, sans-serif"> Games</text></g><g class="node" aria-label="graph-node156306" transform="translate(8.799559675270546,44.12393232065105)"><circle class="b-outline" cx="0" cy="0" r="25" fill="#57C7E3" stroke="#23b3d7" stroke-width="2px"/><text class="caption" text-anchor="middle" pointer-events="none" x="0" y="5" font-size="10px" fill="#2A2C34" font-family="Helvetica Neue, Helvetica, Arial, sans-serif"> Root</text></g><g class="node" aria-label="graph-node261702" transform="translate(-83.32818858115235,223.8755281591145)"><circle class="b-outline" cx="0" cy="0" r="25" fill="#D9C8AE" stroke="#c0a378" stroke-width="2px"/><text class="caption" text-anchor="middle" pointer-events="none" x="0" y="5" font-size="10px" fill="#2A2C34" font-family="Helvetica Neue, Helvetica, Arial, sans-serif"> 0.2.0</text></g><g class="node" aria-label="graph-node129216" transform="translate(147.32308221129978,-41.90701397588879)"><circle class="b-outline" cx="0" cy="0" r="25" fill="#F79767" stroke="#f36924" stroke-width="2px"/><text class="caption" text-anchor="middle" pointer-events="none" x="0" y="5" font-size="10px" fill="#FFFFFF" font-family="Helvetica Neue, Helvetica, Arial, sans-serif"> 123</text></g><g class="node" aria-label="graph-node129230" transform="translate(92.4436766066659,481.6792160781483)"><circle class="b-outline" cx="0" cy="0" r="25" fill="#F79767" stroke="#f36924" stroke-width="2px"/><text class="caption" text-anchor="middle" pointer-events="none" x="0" y="5" font-size="10px" fill="#FFFFFF" font-family="Helvetica Neue, Helvetica, Arial, sans-serif"> 753150</text></g><g class="node" aria-label="graph-node127070" transform="translate(188.6961495092424,458.5171209588443)"><circle class="b-outline" cx="0" cy="0" r="25" fill="#F79767" stroke="#f36924" stroke-width="2px"/><text class="caption" text-anchor="middle" pointer-events="none" x="0" y="5" font-size="10px" fill="#FFFFFF" font-family="Helvetica Neue, Helvetica, Arial, sans-serif"> 179</text></g><g class="node" aria-label="graph-node107579" transform="translate(250.94562970928186,381.13066850014326)"><circle class="b-outline" cx="0" cy="0" r="25" fill="#F79767" stroke="#f36924" stroke-width="2px"/><text class="caption" text-anchor="middle" pointer-events="none" x="0" y="5" font-size="10px" fill="#FFFFFF" font-family="Helvetica Neue, Helvetica, Arial, sans-serif"> 1174054</text></g><g class="node" aria-label="graph-node29959" transform="translate(264.1445832698943,169.80750376717612)"><circle class="b-outline" cx="0" cy="0" r="25" fill="#C990C0" stroke="#b261a5" stroke-width="2px"/><text class="caption" text-anchor="middle" pointer-events="none" x="0" y="5" font-size="10px" fill="#FFFFFF" font-family="Helvetica Neue, Helvetica, Arial, sans-serif"> serde-alt…</text></g><g class="node" aria-label="graph-node129140" transform="translate(393.59107581422586,277.49799606639976)"><circle class="b-outline" cx="0" cy="0" r="25" fill="#F79767" stroke="#f36924" stroke-width="2px"/><text class="caption" text-anchor="middle" pointer-events="none" x="0" y="5" font-size="10px" fill="#FFFFFF" font-family="Helvetica Neue, Helvetica, Arial, sans-serif"> 1847</text></g><g class="node" aria-label="graph-node726566" transform="translate(57.71224863314582,128.7086229831045)"><circle class="b-outline" cx="0" cy="0" r="25" fill="#D9C8AE" stroke="#c0a378" stroke-width="2px"/><text class="caption" text-anchor="middle" pointer-events="none" x="0" y="5" font-size="10px" fill="#2A2C34" font-family="Helvetica Neue, Helvetica, Arial, sans-serif"> 0.2.0</text></g><g class="node" aria-label="graph-node156355" transform="translate(194.141308969673,264.67253233413896)"><circle class="b-outline" cx="0" cy="0" r="25" fill="#57C7E3" stroke="#23b3d7" stroke-width="2px"/><text class="caption" text-anchor="middle" pointer-events="none" x="0" y="5" font-size="10px" fill="#2A2C34" font-family="Helvetica Neue, Helvetica, Arial, sans-serif"> Encoding</text></g><g class="node" aria-label="graph-node729384" transform="translate(14.498295468275439,216.55554165523503)"><circle class="b-outline" cx="0" cy="0" r="25" fill="#D9C8AE" stroke="#c0a378" stroke-width="2px"/><text class="caption" text-anchor="middle" pointer-events="none" x="0" y="5" font-size="10px" fill="#2A2C34" font-family="Helvetica Neue, Helvetica, Arial, sans-serif"> 0.5.1</text></g><g class="node" aria-label="graph-node549634" transform="translate(110.71373768638348,211.2294554851356)"><circle class="b-outline" cx="0" cy="0" r="25" fill="#D9C8AE" stroke="#c0a378" stroke-width="2px"/><text class="caption" text-anchor="middle" pointer-events="none" x="0" y="5" font-size="10px" fill="#2A2C34" font-family="Helvetica Neue, Helvetica, Arial, sans-serif"> 0.1.0</text></g><g class="node" aria-label="graph-node536082" transform="translate(157.6692080537191,126.83099719524694)"><circle class="b-outline" cx="0" cy="0" r="25" fill="#D9C8AE" stroke="#c0a378" stroke-width="2px"/><text class="caption" text-anchor="middle" pointer-events="none" x="0" y="5" font-size="10px" fill="#2A2C34" font-family="Helvetica Neue, Helvetica, Arial, sans-serif"> 0.4.0</text></g><g class="node" aria-label="graph-node503689" transform="translate(203.46194777938777,37.48877207513603)"><circle class="b-outline" cx="0" cy="0" r="25" fill="#D9C8AE" stroke="#c0a378" stroke-width="2px"/><text class="caption" text-anchor="middle" pointer-events="none" x="0" y="5" font-size="10px" fill="#2A2C34" font-family="Helvetica Neue, Helvetica, Arial, sans-serif"> 0.5.0</text></g><g class="node" aria-label="graph-node462436" transform="translate(106.01310576325767,43.541319883406366)"><circle class="b-outline" cx="0" cy="0" r="25" fill="#D9C8AE" stroke="#c0a378" stroke-width="2px"/><text class="caption" text-anchor="middle" pointer-events="none" x="0" y="5" font-size="10px" fill="#2A2C34" font-family="Helvetica Neue, Helvetica, Arial, sans-serif"> 0.3.0</text></g><g class="node" aria-label="graph-node119155" transform="translate(430.1741534269913,185.07305918220243)"><circle class="b-outline" cx="0" cy="0" r="25" fill="#F79767" stroke="#f36924" stroke-width="2px"/><text class="caption" text-anchor="middle" pointer-events="none" x="0" y="5" font-size="10px" fill="#FFFFFF" font-family="Helvetica Neue, Helvetica, Arial, sans-serif"> 408045</text></g><g class="node" aria-label="graph-node103765" transform="translate(173.39367952283763,-331.78791076040625)"><circle class="b-outline" cx="0" cy="0" r="25" fill="#C990C0" stroke="#b261a5" stroke-width="2px"/><text class="caption" text-anchor="middle" pointer-events="none" x="0" y="5" font-size="10px" fill="#FFFFFF" font-family="Helvetica Neue, Helvetica, Arial, sans-serif"> patched…</text></g><g class="node" aria-label="graph-node126819" transform="translate(341.60879793464176,-315.4787869763186)"><circle class="b-outline" cx="0" cy="0" r="25" fill="#F79767" stroke="#f36924" stroke-width="2px"/><text class="caption" text-anchor="middle" pointer-events="none" x="0" y="5" font-size="10px" fill="#FFFFFF" font-family="Helvetica Neue, Helvetica, Arial, sans-serif"> 283776</text></g><g class="node" aria-label="graph-node814813" transform="translate(151.62588721417748,-137.57226987501514)"><circle class="b-outline" cx="0" cy="0" r="25" fill="#D9C8AE" stroke="#c0a378" stroke-width="2px"/><text class="caption" text-anchor="middle" pointer-events="none" x="0" y="5" font-size="10px" fill="#2A2C34" font-family="Helvetica Neue, Helvetica, Arial, sans-serif"> 0.9.1</text></g><g class="node" aria-label="graph-node797704" transform="translate(238.609888966605,-184.46233393288813)"><circle class="b-outline" cx="0" cy="0" r="25" fill="#D9C8AE" stroke="#c0a378" stroke-width="2px"/><text class="caption" text-anchor="middle" pointer-events="none" x="0" y="5" font-size="10px" fill="#2A2C34" font-family="Helvetica Neue, Helvetica, Arial, sans-serif"> 0.9.0</text></g><g class="node" aria-label="graph-node675068" transform="translate(72.07619136046766,-193.36785737115426)"><circle class="b-outline" cx="0" cy="0" r="25" fill="#D9C8AE" stroke="#c0a378" stroke-width="2px"/><text class="caption" text-anchor="middle" pointer-events="none" x="0" y="5" font-size="10px" fill="#2A2C34" font-family="Helvetica Neue, Helvetica, Arial, sans-serif"> 0.7.1</text></g><g class="node" aria-label="graph-node557063" transform="translate(232.9758893532029,-88.08640249163949)"><circle class="b-outline" cx="0" cy="0" r="25" fill="#D9C8AE" stroke="#c0a378" stroke-width="2px"/><text class="caption" text-anchor="middle" pointer-events="none" x="0" y="5" font-size="10px" fill="#2A2C34" font-family="Helvetica Neue, Helvetica, Arial, sans-serif"> 0.5.3</text></g><g class="node" aria-label="graph-node539348" transform="translate(-1.2993799488524427,-349.1756343563713)"><circle class="b-outline" cx="0" cy="0" r="25" fill="#D9C8AE" stroke="#c0a378" stroke-width="2px"/><text class="caption" text-anchor="middle" pointer-events="none" x="0" y="5" font-size="10px" fill="#2A2C34" font-family="Helvetica Neue, Helvetica, Arial, sans-serif"> 0.8.0</text></g><g class="node" aria-label="graph-node520774" transform="translate(158.10941341122265,-235.07377204391855)"><circle class="b-outline" cx="0" cy="0" r="25" fill="#D9C8AE" stroke="#c0a378" stroke-width="2px"/><text class="caption" text-anchor="middle" pointer-events="none" x="0" y="5" font-size="10px" fill="#2A2C34" font-family="Helvetica Neue, Helvetica, Arial, sans-serif"> 0.4.0</text></g><g class="node" aria-label="graph-node518276" transform="translate(77.3409853893868,-291.94321548212145)"><circle class="b-outline" cx="0" cy="0" r="25" fill="#D9C8AE" stroke="#c0a378" stroke-width="2px"/><text class="caption" text-anchor="middle" pointer-events="none" x="0" y="5" font-size="10px" fill="#2A2C34" font-family="Helvetica Neue, Helvetica, Arial, sans-serif"> 0.3.0</text></g><g class="node" aria-label="graph-node489864" transform="translate(-88.60926342891767,-306.2600496470303)"><circle class="b-outline" cx="0" cy="0" r="25" fill="#D9C8AE" stroke="#c0a378" stroke-width="2px"/><text class="caption" text-anchor="middle" pointer-events="none" x="0" y="5" font-size="10px" fill="#2A2C34" font-family="Helvetica Neue, Helvetica, Arial, sans-serif"> 0.6.0</text></g><g class="node" aria-label="graph-node454701" transform="translate(-7.350379908443511,-250.66404502348058)"><circle class="b-outline" cx="0" cy="0" r="25" fill="#D9C8AE" stroke="#c0a378" stroke-width="2px"/><text class="caption" text-anchor="middle" pointer-events="none" x="0" y="5" font-size="10px" fill="#2A2C34" font-family="Helvetica Neue, Helvetica, Arial, sans-serif"> 0.5.0</text></g><g class="node" aria-label="graph-node294251" transform="translate(-15.891403072335347,-152.99756669799888)"><circle class="b-outline" cx="0" cy="0" r="25" fill="#D9C8AE" stroke="#c0a378" stroke-width="2px"/><text class="caption" text-anchor="middle" pointer-events="none" x="0" y="5" font-size="10px" fill="#2A2C34" font-family="Helvetica Neue, Helvetica, Arial, sans-serif"> 0.7.0</text></g><g class="node" aria-label="graph-node194769" transform="translate(-96.34396848725784,-208.32538175439603)"><circle class="b-outline" cx="0" cy="0" r="25" fill="#D9C8AE" stroke="#c0a378" stroke-width="2px"/><text class="caption" text-anchor="middle" pointer-events="none" x="0" y="5" font-size="10px" fill="#2A2C34" font-family="Helvetica Neue, Helvetica, Arial, sans-serif"> 0.5.1</text></g><g class="node" aria-label="graph-node126955" transform="translate(320.7790617883723,-412.36839070320264)"><circle class="b-outline" cx="0" cy="0" r="25" fill="#F79767" stroke="#f36924" stroke-width="2px"/><text class="caption" text-anchor="middle" pointer-events="none" x="0" y="5" font-size="10px" fill="#FFFFFF" font-family="Helvetica Neue, Helvetica, Arial, sans-serif"> 2780</text></g><g class="node" aria-label="graph-node129062" transform="translate(246.1138724420501,-477.74600471094175)"><circle class="b-outline" cx="0" cy="0" r="25" fill="#F79767" stroke="#f36924" stroke-width="2px"/><text class="caption" text-anchor="middle" pointer-events="none" x="0" y="5" font-size="10px" fill="#FFFFFF" font-family="Helvetica Neue, Helvetica, Arial, sans-serif"> 43</text></g><g class="node" aria-label="graph-node127559" transform="translate(147.2216133301675,-488.74347588715995)"><circle class="b-outline" cx="0" cy="0" r="25" fill="#F79767" stroke="#f36924" stroke-width="2px"/><text class="caption" text-anchor="middle" pointer-events="none" x="0" y="5" font-size="10px" fill="#FFFFFF" font-family="Helvetica Neue, Helvetica, Arial, sans-serif"> 1350</text></g><g class="node" aria-label="graph-node156320" transform="translate(65.10194458222053,-97.19459974050255)"><circle class="b-outline" cx="0" cy="0" r="25" fill="#57C7E3" stroke="#23b3d7" stroke-width="2px"/><text class="caption" text-anchor="middle" pointer-events="none" x="0" y="0" font-size="10px" fill="#2A2C34" font-family="Helvetica Neue, Helvetica, Arial, sans-serif"> Parser</text><text class="caption" text-anchor="middle" pointer-events="none" x="0" y="10" font-size="10px" fill="#2A2C34" font-family="Helvetica Neue, Helvetica, Arial, sans-serif"> imple…</text></g><g class="node" aria-label="graph-node79216" transform="translate(-402.9108182429003,19.040515909117232)"><circle class="b-outline" cx="0" cy="0" r="25" fill="#C990C0" stroke="#b261a5" stroke-width="2px"/><text class="caption" text-anchor="middle" pointer-events="none" x="0" y="5" font-size="10px" fill="#FFFFFF" font-family="Helvetica Neue, Helvetica, Arial, sans-serif"> bobbot</text></g><g class="node" aria-label="graph-node128754" transform="translate(-556.6046316318565,84.95689766823223)"><circle class="b-outline" cx="0" cy="0" r="25" fill="#F79767" stroke="#f36924" stroke-width="2px"/><text class="caption" text-anchor="middle" pointer-events="none" x="0" y="5" font-size="10px" fill="#FFFFFF" font-family="Helvetica Neue, Helvetica, Arial, sans-serif"> 2379</text></g><g class="node" aria-label="graph-node775305" transform="translate(-183.13972494187135,-122.57860074171475)"><circle class="b-outline" cx="0" cy="0" r="25" fill="#D9C8AE" stroke="#c0a378" stroke-width="2px"/><text class="caption" text-anchor="middle" pointer-events="none" x="0" y="5" font-size="10px" fill="#2A2C34" font-family="Helvetica Neue, Helvetica, Arial, sans-serif"> 1.0.1</text></g><g class="node" aria-label="graph-node156357" transform="translate(-110.39597299727681,57.35653627520234)"><circle class="b-outline" cx="0" cy="0" r="25" fill="#57C7E3" stroke="#23b3d7" stroke-width="2px"/><text class="caption" text-anchor="middle" pointer-events="none" x="0" y="0" font-size="10px" fill="#2A2C34" font-family="Helvetica Neue, Helvetica, Arial, sans-serif"> Command</text><text class="caption" text-anchor="middle" pointer-events="none" x="0" y="10" font-size="10px" fill="#2A2C34" font-family="Helvetica Neue, Helvetica, Arial, sans-serif"> line utilit</text></g><g class="node" aria-label="graph-node700213" transform="translate(-218.99878428905643,-209.97212222983933)"><circle class="b-outline" cx="0" cy="0" r="25" fill="#D9C8AE" stroke="#c0a378" stroke-width="2px"/><text class="caption" text-anchor="middle" pointer-events="none" x="0" y="5" font-size="10px" fill="#2A2C34" font-family="Helvetica Neue, Helvetica, Arial, sans-serif"> 0.10.0</text></g><g class="node" aria-label="graph-node700368" transform="translate(-315.89334327985927,-223.50243434928524)"><circle class="b-outline" cx="0" cy="0" r="25" fill="#D9C8AE" stroke="#c0a378" stroke-width="2px"/><text class="caption" text-anchor="middle" pointer-events="none" x="0" y="5" font-size="10px" fill="#2A2C34" font-family="Helvetica Neue, Helvetica, Arial, sans-serif"> 0.10.1</text></g><g class="node" aria-label="graph-node696449" transform="translate(-149.74011139107196,-33.59828282905368)"><circle class="b-outline" cx="0" cy="0" r="25" fill="#D9C8AE" stroke="#c0a378" stroke-width="2px"/><text class="caption" text-anchor="middle" pointer-events="none" x="0" y="5" font-size="10px" fill="#2A2C34" font-family="Helvetica Neue, Helvetica, Arial, sans-serif"> 0.7.0</text></g><g class="node" aria-label="graph-node696757" transform="translate(-377.4849057520635,-148.26126010766274)"><circle class="b-outline" cx="0" cy="0" r="25" fill="#D9C8AE" stroke="#c0a378" stroke-width="2px"/><text class="caption" text-anchor="middle" pointer-events="none" x="0" y="5" font-size="10px" fill="#2A2C34" font-family="Helvetica Neue, Helvetica, Arial, sans-serif"> 0.6.0</text></g><g class="node" aria-label="graph-node700090" transform="translate(-342.8185831959801,-59.160411174245226)"><circle class="b-outline" cx="0" cy="0" r="25" fill="#D9C8AE" stroke="#c0a378" stroke-width="2px"/><text class="caption" text-anchor="middle" pointer-events="none" x="0" y="5" font-size="10px" fill="#2A2C34" font-family="Helvetica Neue, Helvetica, Arial, sans-serif"> 0.10.3</text></g><g class="node" aria-label="graph-node698160" transform="translate(-280.09597544060136,-135.0603059569588)"><circle class="b-outline" cx="0" cy="0" r="25" fill="#D9C8AE" stroke="#c0a378" stroke-width="2px"/><text class="caption" text-anchor="middle" pointer-events="none" x="0" y="5" font-size="10px" fill="#2A2C34" font-family="Helvetica Neue, Helvetica, Arial, sans-serif"> 0.5.0</text></g><g class="node" aria-label="graph-node699672" transform="translate(-243.36350342898533,-47.01124987725558)"><circle class="b-outline" cx="0" cy="0" r="25" fill="#D9C8AE" stroke="#c0a378" stroke-width="2px"/><text class="caption" text-anchor="middle" pointer-events="none" x="0" y="5" font-size="10px" fill="#2A2C34" font-family="Helvetica Neue, Helvetica, Arial, sans-serif"> 1.0.0</text></g><g class="node" aria-label="graph-node700459" transform="translate(-361.70884554582557,109.21187195139473)"><circle class="b-outline" cx="0" cy="0" r="25" fill="#D9C8AE" stroke="#c0a378" stroke-width="2px"/><text class="caption" text-anchor="middle" pointer-events="none" x="0" y="5" font-size="10px" fill="#2A2C34" font-family="Helvetica Neue, Helvetica, Arial, sans-serif"> 0.2.0</text></g><g class="node" aria-label="graph-node690839" transform="translate(-302.8901316909294,29.916667036388272)"><circle class="b-outline" cx="0" cy="0" r="25" fill="#D9C8AE" stroke="#c0a378" stroke-width="2px"/><text class="caption" text-anchor="middle" pointer-events="none" x="0" y="5" font-size="10px" fill="#2A2C34" font-family="Helvetica Neue, Helvetica, Arial, sans-serif"> 0.8.0</text></g><g class="node" aria-label="graph-node521769" transform="translate(-205.6200044305899,43.79152291209276)"><circle class="b-outline" cx="0" cy="0" r="25" fill="#D9C8AE" stroke="#c0a378" stroke-width="2px"/><text class="caption" text-anchor="middle" pointer-events="none" x="0" y="5" font-size="10px" fill="#2A2C34" font-family="Helvetica Neue, Helvetica, Arial, sans-serif"> 0.10.2</text></g><g class="node" aria-label="graph-node520769" transform="translate(-323.9197917586183,198.56843291958987)"><circle class="b-outline" cx="0" cy="0" r="25" fill="#D9C8AE" stroke="#c0a378" stroke-width="2px"/><text class="caption" text-anchor="middle" pointer-events="none" x="0" y="5" font-size="10px" fill="#2A2C34" font-family="Helvetica Neue, Helvetica, Arial, sans-serif"> 0.3.0</text></g><g class="node" aria-label="graph-node467286" transform="translate(-264.45376046679564,120.17126099454933)"><circle class="b-outline" cx="0" cy="0" r="25" fill="#D9C8AE" stroke="#c0a378" stroke-width="2px"/><text class="caption" text-anchor="middle" pointer-events="none" x="0" y="5" font-size="10px" fill="#2A2C34" font-family="Helvetica Neue, Helvetica, Arial, sans-serif"> 0.9.0</text></g><g class="node" aria-label="graph-node337108" transform="translate(-166.58920816467537,135.01887400140674)"><circle class="b-outline" cx="0" cy="0" r="25" fill="#D9C8AE" stroke="#c0a378" stroke-width="2px"/><text class="caption" text-anchor="middle" pointer-events="none" x="0" y="5" font-size="10px" fill="#2A2C34" font-family="Helvetica Neue, Helvetica, Arial, sans-serif"> 0.3.2</text></g><g class="node" aria-label="graph-node276958" transform="translate(-226.69830352133087,211.6091868331117)"><circle class="b-outline" cx="0" cy="0" r="25" fill="#D9C8AE" stroke="#c0a378" stroke-width="2px"/><text class="caption" text-anchor="middle" pointer-events="none" x="0" y="5" font-size="10px" fill="#2A2C34" font-family="Helvetica Neue, Helvetica, Arial, sans-serif"> 0.4.0</text></g><g class="node" aria-label="graph-node119739" transform="translate(-564.614236423886,-14.137622375822295)"><circle class="b-outline" cx="0" cy="0" r="25" fill="#F79767" stroke="#f36924" stroke-width="2px"/><text class="caption" text-anchor="middle" pointer-events="none" x="0" y="5" font-size="10px" fill="#FFFFFF" font-family="Helvetica Neue, Helvetica, Arial, sans-serif"> 474959</text></g></g></svg>